<?xml version="1.0" encoding="UTF-8" standalone="no"?>
<svg
   viewBox="0 0 425.70001 377.93295"
   version="1.1"
   id="svg275"
   sodipodi:docname="writing.svg"
   width="425.70001"
   height="377.93295"
   inkscape:version="1.2.2 (b0a8486541, 2022-12-01)"
   xmlns:inkscape="http://www.inkscape.org/namespaces/inkscape"
   xmlns:sodipodi="http://sodipodi.sourceforge.net/DTD/sodipodi-0.dtd"
   xmlns="http://www.w3.org/2000/svg"
   xmlns:svg="http://www.w3.org/2000/svg">
  <defs
     id="defs279" />
  <sodipodi:namedview
     id="namedview277"
     pagecolor="#ffffff"
     bordercolor="#000000"
     borderopacity="0.25"
     inkscape:showpageshadow="2"
     inkscape:pageopacity="0.0"
     inkscape:pagecheckerboard="0"
     inkscape:deskcolor="#d1d1d1"
     showgrid="false"
     inkscape:zoom="0.73963369"
     inkscape:cx="245.39174"
     inkscape:cy="171.03061"
     inkscape:window-width="1366"
     inkscape:window-height="712"
     inkscape:window-x="0"
     inkscape:window-y="0"
     inkscape:window-maximized="1"
     inkscape:current-layer="svg275" />
  <g
     id="freepik--Plants--inject-9"
     transform="translate(-42.07,-86.727046)">
    <path
       d="m 428.47,425.65 a 0.35,0.35 0 0 0 0.45,-0.12 43.43,43.43 0 0 0 2.44,-42.29 0.34,0.34 0 0 0 -0.46,-0.15 0.33,0.33 0 0 0 -0.15,0.45 42.74,42.74 0 0 1 -2.41,41.62 0.35,0.35 0 0 0 0.1,0.48 z"
       style="fill:#92e3a9"
       id="path2" />
    <path
       d="m 428.3,411 c 4.1,0.81 3.91,7.56 3.74,7.6 -0.26,0.67 -0.53,1.34 -0.81,2 0,-1 -1.14,-3 -3.62,-4.95 -2.48,-1.95 -3.19,-5.57 0.69,-4.65 z"
       style="fill:#92e3a9"
       id="path4" />
    <path
       d="m 440,413.87 c 4,0.94 0.8,5.61 -2.5,5.56 -3.3,-0.05 -5.54,0.55 -6.25,1.19 0.33,-0.64 0.65,-1.29 1,-1.95 0.1,0.11 3.96,-5.55 7.75,-4.8 z"
       style="fill:#92e3a9"
       id="path6" />
    <path
       d="m 429.26,404.86 c 4.18,0.12 5.14,6.74 5,6.79 -0.13,0.7 -0.28,1.39 -0.45,2.09 -0.11,-0.95 -1.64,-2.74 -4.41,-4.23 -2.77,-1.49 -4.12,-4.9 -0.14,-4.65 z"
       style="fill:#92e3a9"
       id="path8" />
    <path
       d="m 441.31,405.73 c 4.1,0.26 1.74,5.35 -1.52,5.84 -3.26,0.49 -5.35,1.44 -5.94,2.18 0.22,-0.68 0.41,-1.36 0.59,-2.05 0.13,0.1 2.98,-6.06 6.87,-5.97 z"
       style="fill:#92e3a9"
       id="path10" />
    <path
       d="m 429.19,398.68 c 4.14,-0.58 6.19,5.76 6,5.84 0,0.71 0,1.41 -0.09,2.11 -0.27,-0.9 -2.08,-2.4 -5.06,-3.4 -2.98,-1 -4.82,-4.12 -0.85,-4.55 z"
       style="fill:#92e3a9"
       id="path12" />
    <path
       d="m 441.21,397.52 c 4.08,-0.43 2.61,5 -0.52,6 -3.13,1 -5,2.3 -5.49,3.12 0.1,-0.7 0.18,-1.4 0.24,-2.11 0.14,0.08 1.92,-6.44 5.77,-7.01 z"
       style="fill:#92e3a9"
       id="path14" />
    <path
       d="m 428.08,392.6 c 4,-1.26 7.07,4.66 6.94,4.75 0.1,0.7 0.19,1.4 0.26,2.1 -0.42,-0.85 -2.45,-2 -5.56,-2.51 -3.11,-0.51 -5.48,-3.26 -1.64,-4.34 z"
       style="fill:#92e3a9"
       id="path16" />
    <path
       d="m 439.74,389.44 c 3.95,-1.11 3.4,4.48 0.49,6 -2.91,1.52 -4.58,3.11 -4.89,4 0,-0.7 -0.06,-1.41 -0.12,-2.11 0.16,0.06 0.78,-6.68 4.52,-7.89 z"
       style="fill:#92e3a9"
       id="path18" />
    <path
       d="m 425.94,386.73 c 3.72,-1.91 7.78,3.46 7.66,3.57 0.22,0.67 0.43,1.35 0.61,2 -0.55,-0.76 -2.75,-1.59 -5.9,-1.55 -3.15,0.04 -5.97,-2.3 -2.37,-4.02 z"
       style="fill:#92e3a9"
       id="path20" />
    <path
       d="m 436.9,381.65 c 3.72,-1.76 4.13,3.89 1.52,5.9 -2.61,2.01 -4,3.84 -4.15,4.77 -0.14,-0.7 -0.3,-1.39 -0.47,-2.08 0.2,0.04 -0.33,-6.76 3.1,-8.59 z"
       style="fill:#92e3a9"
       id="path22" />
    <path
       d="m 432.39,386.37 c 0.1,0 -0.46,-6.05 -2.14,-8.95 -1.68,-2.9 -4.1,-2.41 -4.8,-1.15 -0.7,1.26 0.45,3.22 1.76,4.64 1.31,1.42 5.24,5.37 5.18,5.46 z"
       style="fill:#92e3a9"
       id="path24" />
    <path
       d="m 432.28,386.57 v 0 a 0.22,0.22 0 0 0 0.25,-0.07 v 0 a 0.17,0.17 0 0 0 0,-0.17 c 0.09,-1.13 -0.72,-6.52 -2.16,-9 a 3.74,3.74 0 0 0 -3.13,-2.25 2.33,2.33 0 0 0 -2.07,1.11 c -1,1.69 1.12,4.18 1.79,4.9 1.36,1.27 4.86,5 5.13,5.38 a 0.24,0.24 0 0 0 0.19,0.1 z m -3.8,-10.76 a 4.05,4.05 0 0 1 1.57,1.72 c 1.32,2.28 1.93,6.53 2.08,8.15 -0.31,-0.36 -0.82,-0.9 -1.62,-1.75 -1,-1.08 -2.4,-2.5 -3.15,-3.19 -1.25,-1.36 -2.36,-3.23 -1.71,-4.36 a 1.88,1.88 0 0 1 1.66,-0.88 2.43,2.43 0 0 1 1.17,0.31 z"
       style="fill:#92e3a9"
       id="path26" />
    <path
       d="m 175.74,425.63 a 0.49,0.49 0 0 0 0.64,-0.16 61.47,61.47 0 0 0 3.46,-59.87 0.49,0.49 0 1 0 -0.87,0.43 60.48,60.48 0 0 1 -3.41,58.91 0.48,0.48 0 0 0 0.15,0.67 z"
       style="fill:#92e3a9"
       id="path28" />
    <path
       d="m 175.51,404.88 c 5.81,1.15 5.53,10.7 5.29,10.76 -0.36,0.95 -0.74,1.9 -1.15,2.84 0.08,-1.37 -1.61,-4.26 -5.12,-7 -3.51,-2.74 -4.53,-7.89 0.98,-6.6 z"
       style="fill:#92e3a9"
       id="path30" />
    <path
       d="m 192.12,409 c 5.65,1.33 1.13,7.94 -3.55,7.87 -4.59,0.1 -7.83,0.78 -8.85,1.68 0.48,-0.91 0.92,-1.83 1.35,-2.76 0.16,0.12 5.64,-7.89 11.05,-6.79 z"
       style="fill:#92e3a9"
       id="path32" />
    <path
       d="m 176.87,396.2 c 5.92,0.17 7.27,9.54 7,9.62 -0.19,1 -0.4,2 -0.64,2.95 -0.16,-1.34 -2.32,-3.88 -6.25,-6 -3.93,-2.12 -5.75,-6.92 -0.11,-6.57 z"
       style="fill:#92e3a9"
       id="path34" />
    <path
       d="m 193.93,397.43 c 5.8,0.37 2.46,7.57 -2.16,8.28 -4.62,0.71 -7.57,2 -8.41,3.08 0.31,-1 0.59,-1.93 0.84,-2.9 0.19,0.11 4.22,-8.59 9.73,-8.46 z"
       style="fill:#92e3a9"
       id="path36" />
    <path
       d="m 176.76,387.46 c 5.86,-0.82 8.76,8.15 8.56,8.26 0,1 -0.06,2 -0.13,3 -0.38,-1.28 -2.94,-3.4 -7.17,-4.81 -4.23,-1.41 -6.87,-5.85 -1.26,-6.45 z"
       style="fill:#92e3a9"
       id="path38" />
    <path
       d="m 193.79,385.82 c 5.77,-0.61 3.68,7 -0.75,8.49 -4.43,1.49 -7.12,3.25 -7.76,4.41 0.13,-1 0.25,-2 0.33,-3 0.2,0.13 2.72,-9.1 8.18,-9.9 z"
       style="fill:#92e3a9"
       id="path40" />
    <path
       d="m 175.19,378.84 c 5.64,-1.78 10,6.6 9.83,6.73 0.14,1 0.27,2 0.37,3 -0.6,-1.2 -3.47,-2.86 -7.88,-3.54 -4.41,-0.68 -7.75,-4.66 -2.32,-6.19 z"
       style="fill:#92e3a9"
       id="path42" />
    <path
       d="m 191.7,374.37 c 5.6,-1.57 4.82,6.34 0.69,8.51 -4,2.28 -6.48,4.4 -6.92,5.65 0,-1 -0.08,-2 -0.16,-3 0.21,0.09 1.15,-9.45 6.39,-11.16 z"
       style="fill:#92e3a9"
       id="path44" />
    <path
       d="m 172.17,370.54 c 5.27,-2.71 11,4.89 10.84,5 q 0.47,1.43 0.87,2.88 c -0.79,-1.09 -3.9,-2.25 -8.36,-2.2 -4.46,0.05 -8.44,-3.22 -3.35,-5.68 z"
       style="fill:#92e3a9"
       id="path46" />
    <path
       d="m 187.69,363.35 c 5.25,-2.49 5.84,5.51 2.14,8.34 -3.53,2.92 -5.64,5.45 -5.87,6.76 -0.2,-1 -0.42,-2 -0.67,-2.94 0.24,0.05 -0.47,-9.58 4.4,-12.16 z"
       style="fill:#92e3a9"
       id="path48" />
    <path
       d="m 181.29,370 c 0.15,0.06 -0.65,-8.56 -3,-12.66 -2.21,-4.1 -5.81,-3.42 -6.8,-1.64 -0.99,1.78 0.64,4.57 2.49,6.57 1.96,1.86 7.4,7.63 7.31,7.73 z"
       style="fill:#92e3a9"
       id="path50" />
    <path
       d="m 181.14,370.31 v 0 a 0.32,0.32 0 0 0 0.36,-0.09 v 0 a 0.24,0.24 0 0 0 0.05,-0.25 c 0.13,-1.59 -1,-9.23 -3.06,-12.76 -1.09,-2 -2.7,-3.18 -4.43,-3.19 a 3.3,3.3 0 0 0 -2.93,1.57 c -1.38,2.39 1.59,5.92 2.53,6.94 1.93,1.79 6.88,7.05 7.27,7.62 a 0.34,0.34 0 0 0 0.21,0.16 z m -5.38,-15.23 a 5.68,5.68 0 0 1 2.22,2.43 c 1.87,3.24 2.74,9.25 3,11.55 -0.45,-0.51 -1.17,-1.28 -2.31,-2.48 -1.45,-1.54 -3.39,-3.54 -4.45,-4.52 -1.77,-1.92 -3.35,-4.57 -2.43,-6.18 a 2.69,2.69 0 0 1 2.36,-1.24 3.63,3.63 0 0 1 1.61,0.44 z"
       style="fill:#92e3a9"
       id="path52" />
    <path
       d="m 61.17,424.73 a 0.48,0.48 0 0 1 -0.4,-0.53 62.14,62.14 0 0 1 34.23,-50 0.48,0.48 0 0 1 0.65,0.22 0.5,0.5 0 0 1 -0.22,0.66 61.15,61.15 0 0 0 -33.73,49.21 0.48,0.48 0 0 1 -0.53,0.44 z"
       style="fill:#92e3a9"
       id="path54" />
    <path
       d="m 74.2,408.28 c -5.35,-2.68 -11,5.14 -10.88,5.33 -0.31,1 -0.59,2 -0.84,3 0.78,-1.14 3.92,-2.41 8.43,-2.45 4.51,-0.04 8.49,-3.51 3.29,-5.88 z"
       style="fill:#92e3a9"
       id="path56" />
    <path
       d="m 58.4,401.27 c -5.35,-2.44 -5.81,5.64 -2,8.49 3.61,2.91 5.79,5.46 6,6.81 0.18,-1 0.39,-2 0.63,-3 -0.23,-0.02 0.34,-9.81 -4.63,-12.3 z"
       style="fill:#92e3a9"
       id="path58" />
    <path
       d="m 78.48,400.5 c -4.83,-3.53 -11.71,3.12 -11.59,3.33 -0.46,0.9 -0.89,1.82 -1.31,2.75 1,-1 4.25,-1.66 8.7,-0.92 4.43,0.59 8.92,-1.95 4.2,-5.16 z"
       style="fill:#92e3a9"
       id="path60" />
    <path
       d="m 64.08,390.93 c -4.86,-3.3 -6.65,4.53 -3.39,7.95 3.07,3.46 4.79,6.31 4.81,7.67 0.35,-1 0.73,-1.91 1.13,-2.85 -0.23,0 1.94,-9.46 -2.55,-12.77 z"
       style="fill:#92e3a9"
       id="path62" />
    <path
       d="m 84,393.58 c -4.18,-4.28 -12,1.1 -12,1.31 -0.6,0.81 -1.18,1.63 -1.74,2.47 1.09,-0.79 4.45,-0.9 8.7,0.59 4.29,1.32 9.13,-0.42 5.04,-4.37 z"
       style="fill:#92e3a9"
       id="path64" />
    <path
       d="m 71.38,381.73 c -4.24,-4.06 -7.3,3.34 -4.66,7.25 2.46,3.92 3.68,7 3.48,8.33 0.51,-0.87 1,-1.74 1.58,-2.59 -0.23,-0.04 3.47,-8.97 -0.4,-12.99 z"
       style="fill:#92e3a9"
       id="path66" />
    <path
       d="m 90.56,387.66 c -3.4,-4.92 -12.08,-0.92 -12,-0.7 -0.72,0.7 -1.43,1.41 -2.12,2.14 1.21,-0.59 4.54,-0.13 8.48,2 3.94,2.13 9.08,1.15 5.64,-3.44 z"
       style="fill:#92e3a9"
       id="path68" />
    <path
       d="m 80.13,373.87 c -3.5,-4.72 -7.77,2.09 -5.82,6.38 1.77,4.27 2.46,7.52 2,8.8 0.64,-0.78 1.3,-1.55 2,-2.29 -0.2,-0.07 4.95,-8.28 1.82,-12.89 z"
       style="fill:#92e3a9"
       id="path70" />
    <path
       d="m 98.11,382.89 c -2.53,-5.42 -11.82,-2.89 -11.79,-2.67 -0.84,0.57 -1.66,1.16 -2.47,1.77 1.3,-0.39 4.51,0.61 8,3.41 3.49,2.8 8.83,2.6 6.26,-2.51 z"
       style="fill:#92e3a9"
       id="path72" />
    <path
       d="m 90.16,367.54 c -2.66,-5.24 -8.08,0.79 -6.88,5.35 1,4.51 1.15,7.84 0.52,9 0.76,-0.66 1.55,-1.31 2.35,-1.94 -0.22,-0.07 6.3,-7.33 4.01,-12.41 z"
       style="fill:#92e3a9"
       id="path74" />
    <path
       d="m 91.14,376.83 c -0.15,0 5.82,-6.44 10.26,-8.25 4.44,-1.81 6.75,0.86 6.44,2.9 -0.31,2.04 -3.33,3.25 -6,3.71 -2.77,0.24 -10.69,1.5 -10.7,1.64 z"
       style="fill:#92e3a9"
       id="path76" />
    <path
       d="m 91.09,377.15 v 0 a 0.34,0.34 0 0 1 -0.24,-0.3 0.24,0.24 0 0 1 0.11,-0.23 c 0.89,-1.35 6.53,-6.74 10.34,-8.3 2.12,-0.95 4.14,-0.88 5.53,0.18 a 3.37,3.37 0 0 1 1.36,3.07 c -0.38,2.77 -4.93,3.75 -6.32,4 -2.65,0.24 -9.86,1.39 -10.52,1.6 a 0.31,0.31 0 0 1 -0.26,-0.02 z m 13.73,-8.84 a 5.76,5.76 0 0 0 -3.29,0.57 c -3.5,1.43 -7.91,5.7 -9.5,7.4 0.67,-0.13 1.72,-0.3 3.37,-0.55 2.12,-0.33 4.9,-0.73 6.36,-0.86 2.6,-0.45 5.5,-1.58 5.76,-3.44 a 2.7,2.7 0 0 0 -1.12,-2.43 3.54,3.54 0 0 0 -1.58,-0.69 z"
       style="fill:#92e3a9"
       id="path78" />
    <path
       d="m 189.18,419.78 a 0.59,0.59 0 0 0 0.79,0.13 74.1,74.1 0 0 0 32.91,-64.33 0.59,0.59 0 0 0 -1.17,0.05 72.9,72.9 0 0 1 -32.39,63.3 0.58,0.58 0 0 0 -0.16,0.81 z"
       style="fill:#92e3a9"
       id="path80" />
    <path
       d="m 199,396.78 c 5.85,4.09 0.9,14.49 0.61,14.43 -0.86,0.88 -1.74,1.74 -2.65,2.57 0.75,-1.46 0.3,-5.47 -2.23,-10.22 -2.33,-4.79 -1.15,-10.88 4.27,-6.78 z"
       style="fill:#92e3a9"
       id="path82" />
    <path
       d="m 215.34,409.35 c 5.59,4.21 -2.61,9.3 -7.74,7 -5.1,-2.13 -9,-2.95 -10.56,-2.45 1,-0.77 1.9,-1.57 2.82,-2.39 0.14,0.21 10.04,-5.95 15.48,-2.16 z"
       style="fill:#92e3a9"
       id="path84" />
    <path
       d="m 204.73,387.88 c 6.44,3.05 3.38,14 3.1,14 -0.69,1 -1.4,2 -2.14,2.94 0.48,-1.55 -0.67,-5.4 -4,-9.63 -3.11,-4.28 -3,-10.44 3.04,-7.31 z"
       style="fill:#92e3a9"
       id="path86" />
    <path
       d="m 222.94,397.52 c 6.22,3.22 -1,9.54 -6.4,8.08 -5.37,-1.25 -9.34,-1.43 -10.77,-0.69 q 1.22,-1.37 2.34,-2.79 c 0.14,0.24 8.82,-7.42 14.83,-4.6 z"
       style="fill:#92e3a9"
       id="path88" />
    <path
       d="m 208.86,378.19 c 6.86,1.94 5.7,13.24 5.42,13.27 -0.5,1.09 -1,2.16 -1.6,3.23 0.21,-1.6 -1.59,-5.18 -5.56,-8.79 -3.81,-3.71 -4.74,-9.78 1.74,-7.71 z"
       style="fill:#92e3a9"
       id="path90" />
    <path
       d="m 228.43,384.65 c 6.66,2.13 0.64,9.54 -5,9 -5.5,-0.35 -9.43,0.13 -10.71,1.09 0.64,-1 1.24,-2.07 1.83,-3.12 0.21,0.22 7.45,-8.74 13.88,-6.97 z"
       style="fill:#92e3a9"
       id="path92" />
    <path
       d="m 211.32,367.92 c 7.09,0.78 7.82,12.14 7.56,12.2 -0.32,1.15 -0.66,2.3 -1,3.45 -0.07,-1.61 -2.43,-4.84 -7,-7.73 -4.57,-2.89 -6.3,-8.84 0.44,-7.92 z"
       style="fill:#92e3a9"
       id="path94" />
    <path
       d="m 231.69,371 c 6.93,1 2.23,9.34 -3.37,9.73 -5.48,0.58 -9.28,1.7 -10.38,2.86 0.45,-1.11 0.88,-2.24 1.27,-3.38 0.2,0.21 5.87,-9.85 12.48,-9.21 z"
       style="fill:#92e3a9"
       id="path96" />
    <path
       d="m 212,357.31 c 7.12,-0.43 9.75,10.73 9.5,10.83 -0.12,1.2 -0.27,2.4 -0.45,3.59 -0.33,-1.57 -3.2,-4.38 -8.14,-6.48 -4.94,-2.1 -7.69,-7.74 -0.91,-7.94 z"
       style="fill:#92e3a9"
       id="path98" />
    <path
       d="m 232.62,356.91 c 7,-0.19 3.77,8.92 -1.69,10.25 -5.31,1.5 -8.87,3.26 -9.75,4.59 0.25,-1.18 0.49,-2.37 0.69,-3.56 0.23,0.17 4.13,-10.8 10.75,-11.28 z"
       style="fill:#92e3a9"
       id="path100" />
    <path
       d="m 222.33,361.16 c 0.14,0.14 3.44,-9.75 2.82,-15.43 -0.44,-5.59 -4.75,-6.59 -6.7,-5.1 -1.95,1.49 -1.51,5.34 -0.45,8.45 1.29,2.98 4.48,11.99 4.33,12.08 z"
       style="fill:#92e3a9"
       id="path102" />
    <path
       d="m 222,361.4 a 0.38,0.38 0 0 0 0.45,0.07 v 0 a 0.27,0.27 0 0 0 0.17,-0.25 c 0.92,-1.69 3.36,-10.68 2.83,-15.55 -0.22,-2.76 -1.43,-4.83 -3.34,-5.68 a 4,4 0 0 0 -4,0.31 c -2.69,2 -1.13,7.3 -0.59,8.88 1.26,2.92 4.16,11.12 4.31,11.93 a 0.41,0.41 0 0 0 0.17,0.29 z m 1.47,-19.4 a 6.9,6.9 0 0 1 1.27,3.76 c 0.49,4.48 -1.47,11.53 -2.35,14.16 -0.25,-0.77 -0.67,-2 -1.34,-3.84 -0.86,-2.41 -2,-5.56 -2.72,-7.16 -1,-3 -1.47,-6.66 0.33,-8 a 3.22,3.22 0 0 1 3.21,-0.22 4.24,4.24 0 0 1 1.62,1.3 z"
       style="fill:#92e3a9"
       id="path104" />
  </g>
  <g
     id="freepik--Floor--inject-9"
     transform="translate(-42.07,-86.727046)">
    <path
       d="M 467.27,424.8 H 42.57 a 0.5,0.5 0 1 1 0,-1 h 424.7 a 0.5,0.5 0 0 1 0,1 z"
       style="fill:#263238"
       id="path107" />
  </g>
  <g
     id="freepik--Paper--inject-9"
     transform="translate(-42.07,-86.727046)">
    <path
       d="m 434.48,275.3 a 10.48,10.48 0 0 0 9.46,-5.53 c 3.57,-6.06 6.78,-16.41 6.78,-16.41 h -22.13 c 0,0 -5.71,11.42 -3.92,16.41 1.79,4.99 9.81,5.53 9.81,5.53 z"
       style="fill:#263238"
       id="path110" />
    <path
       d="m 434.89,275.82 c -0.24,0 -0.4,0 -0.45,0 -0.41,0 -8.38,-0.64 -10.24,-5.86 -1.86,-5.22 3.71,-16.33 3.95,-16.81 a 0.48,0.48 0 0 1 0.44,-0.27 h 22.13 a 0.48,0.48 0 0 1 0.4,0.2 0.5,0.5 0 0 1 0.08,0.44 c 0,0.11 -3.27,10.48 -6.83,16.53 a 11,11 0 0 1 -9.48,5.77 z m -6,-22 c -0.85,1.76 -5.31,11.43 -3.77,15.74 1.65,4.63 9.3,5.2 9.37,5.2 v 0 a 9.92,9.92 0 0 0 9,-5.28 c 3,-5.08 5.76,-13.31 6.53,-15.66 z"
       style="fill:#263238"
       id="path112" />
    <path
       d="m 436.46,164.24 c 0,0 15.32,-2.14 14.83,20.6 -0.49,22.74 -19.51,71.86 -21.29,80.08 -1.79,8.42 4.45,10.38 4.45,10.38 h -51.38 c 0,0 -3.46,-60.31 4.45,-80.08 7.91,-19.77 27.68,-29.34 48.94,-30.98 z"
       style="fill:#d6d6d6"
       id="path114" />
    <path
       d="m 434.48,275.8 h -51.41 a 0.5,0.5 0 0 1 -0.5,-0.47 c 0,-0.6 -3.38,-60.65 4.48,-80.3 7.21,-18 25.2,-29.42 49.36,-31.29 a 12.91,12.91 0 0 1 9.69,3.16 c 4,3.52 5.87,9.56 5.69,17.95 -0.36,16.63 -10.62,47.41 -16.75,65.8 -2.26,6.8 -4.05,12.17 -4.52,14.37 -1.67,7.86 3.87,9.73 4.11,9.8 a 0.5,0.5 0 0 1 0.34,0.56 0.49,0.49 0 0 1 -0.49,0.42 z m -50.94,-1 h 49 c -1.82,-1.33 -4.22,-4.25 -3,-10 0.48,-2.27 2.19,-7.39 4.55,-14.48 6.11,-18.34 16.34,-49 16.7,-65.51 0.17,-8.08 -1.62,-13.85 -5.34,-17.17 a 12.14,12.14 0 0 0 -8.92,-2.93 v 0 c -23.77,1.84 -41.46,13 -48.52,30.67 -7.44,18.55 -4.77,73.73 -4.47,79.42 z m 52.92,-110.56 z"
       style="fill:#263238"
       id="path116" />
    <path
       d="m 436.46,164.24 c -13.86,1.07 -27.09,5.51 -36.81,13.95 h 51.26 c -2.34,-15.63 -14.45,-13.95 -14.45,-13.95 z"
       style="fill:#263238"
       id="path118" />
    <path
       d="m 450.91,178.69 h -51.26 a 0.5,0.5 0 0 1 -0.47,-0.32 0.51,0.51 0 0 1 0.14,-0.56 c 9.27,-8 22.09,-12.91 37.09,-14.07 0.57,-0.07 12.66,-1.26 15,14.38 a 0.49,0.49 0 0 1 -0.12,0.4 0.48,0.48 0 0 1 -0.38,0.17 z m -49.89,-1 h 49.3 c -2.43,-14.36 -13.32,-13 -13.79,-13 v 0 c -14.26,1.14 -26.53,5.62 -35.53,13 z m 35.44,-13.45 z"
       style="fill:#263238"
       id="path120" />
    <path
       d="M 436.46,164.24 H 278.92 c 0,0 -21.3,5.45 -27.74,31.7 -6.44,26.25 0,106 -0.5,136.24 -0.5,30.24 -19.32,64.4 -34.18,79.76 -14.86,15.36 -53,30.71 -64.4,34.67 -11.4,3.96 -41.8,7.39 -41.8,7.39 h 208.75 a 103.39,103.39 0 0 0 40.62,-9.9 c 20.31,-9.91 35.76,-28.2 41.12,-67.87 3.28,-24.24 -7.93,-105.52 -7.93,-130.79 0,-25.27 -1,-47.56 12.39,-64.9 12.04,-15.54 31.21,-16.3 31.21,-16.3 z"
       style="fill:#ffffff"
       id="path122" />
    <path
       d="M 319.05,454.54 H 110.3 a 0.49,0.49 0 0 1 -0.5,-0.47 0.49,0.49 0 0 1 0.44,-0.52 c 0.3,0 30.48,-3.51 41.69,-7.41 12,-4.18 49.66,-19.51 64.21,-34.55 13.83,-14.29 33.53,-48.38 34,-79.42 0.16,-9.62 -0.37,-24 -1,-40.61 -1.29,-34.65 -2.9,-77.78 1.5,-95.74 6.44,-26.24 27.89,-32 28.11,-32.07 h 157.71 a 0.5,0.5 0 0 1 0.5,0.49 0.51,0.51 0 0 1 -0.48,0.51 c -0.19,0 -19.08,0.94 -30.84,16.15 -12.4,16.05 -12.35,36.25 -12.29,59.63 0,1.64 0,3.29 0,5 0,10 1.78,29 3.66,49.13 2.93,31.4 6.25,67 4.26,81.72 -4.81,35.59 -17.57,56.64 -41.39,68.26 a 104.79,104.79 0 0 1 -40.83,9.9 z m -200.78,-1 h 200.78 a 103.61,103.61 0 0 0 40.4,-9.85 c 23.49,-11.46 36.08,-32.27 40.84,-67.49 2,-14.61 -1.34,-50.15 -4.27,-81.5 -1.88,-20.17 -3.66,-39.22 -3.66,-49.22 0,-1.66 0,-3.32 0,-5 -0.06,-23.56 -0.11,-43.92 12.5,-60.24 7.73,-10 18.47,-14 25.22,-15.54 H 279 c -1.23,0.34 -21.2,6.34 -27.33,31.32 -4.37,17.82 -2.76,60.87 -1.47,95.46 0.62,16.65 1.15,31 1,40.66 -0.51,31.32 -20.38,65.7 -34.32,80.1 -14.69,15.18 -52.51,30.6 -64.6,34.81 -7.71,2.71 -24.16,5.18 -34.01,6.49 z"
       style="fill:#263238"
       id="path124" />
    <path
       d="m 259.08,399.32 a 11.58,11.58 0 0 1 8.57,4.28 c 3.21,4.28 3.57,14.63 3.57,14.63 h -45.68 c 0,0 19.27,-18.91 33.54,-18.91 z"
       style="fill:#263238"
       id="path126" />
    <path
       d="m 271.21,418.73 h -45.67 a 0.5,0.5 0 0 1 -0.47,-0.31 0.51,0.51 0 0 1 0.12,-0.55 c 0.79,-0.78 19.58,-19.05 33.89,-19.05 a 12,12 0 0 1 9,4.48 c 3.26,4.36 3.65,14.48 3.66,14.91 a 0.47,0.47 0 0 1 -0.14,0.37 0.51,0.51 0 0 1 -0.39,0.15 z m -44.42,-1 h 43.9 c -0.12,-2.13 -0.77,-10.26 -3.44,-13.83 a 11.09,11.09 0 0 0 -8.17,-4.08 c -12.17,0 -28.32,14.23 -32.29,17.91 z"
       style="fill:#263238"
       id="path128" />
    <path
       d="m 268.72,453.92 c 0,0 -24.84,-3.08 -30,-21.06 -4.28,-15 3.21,-24.62 10,-28.9 6.79,-4.28 10.35,-4.64 10.35,-4.64 0,0 -59.95,4.28 -98.85,3.56 -38.9,-0.72 -59.54,-10 -70.25,0 -10.71,10 -8.21,25.7 -1.78,37.83 6.43,12.13 22.11,13.29 22.11,13.29 z"
       style="fill:#ffffff"
       id="path130" />
    <path
       d="m 110.3,454.54 c -0.2,0 -16.07,-1.36 -22.54,-13.59 -3.05,-5.76 -11.92,-25.55 1.88,-38.43 6.87,-6.41 17.75,-5.09 34.22,-3.07 a 335.43,335.43 0 0 0 36.38,2.93 c 38.43,0.72 98.21,-3.52 98.81,-3.56 a 0.49,0.49 0 0 1 0.53,0.45 0.51,0.51 0 0 1 -0.45,0.54 c 0,0 -3.56,0.42 -10.13,4.57 -3.55,2.24 -14.76,10.92 -9.78,28.34 4.98,17.42 29.31,20.67 29.56,20.7 a 0.50089919,0.50089919 0 0 1 -0.06,1 z m -5.25,-55.75 c -6.31,0 -11.15,1.12 -14.73,4.46 -13.28,12.4 -4.65,31.63 -1.68,37.23 6.22,11.74 21.54,13 21.69,13.07 l 153.49,-0.13 c -7.59,-1.94 -21.81,-7.28 -25.56,-20.42 -5.17,-18.1 6.5,-27.13 10.21,-29.47 a 45.07,45.07 0 0 1 6.42,-3.43 c -14.36,0.95 -62.14,3.89 -94.67,3.28 a 336.79,336.79 0 0 1 -36.48,-2.94 166.46,166.46 0 0 0 -18.69,-1.65 z"
       style="fill:#263238"
       id="path132" />
  </g>
  <g
     id="freepik--Letters--inject-9"
     transform="translate(-42.07,-86.727046)">
    <path
       d="m 319,143.28 6.07,-28.58 h 3.84 l 6.11,28.58 h -3.78 l -1.31,-7.2 h -5.82 l -1.37,7.2 z m 5.64,-10.05 h 4.77 L 327,120.35 Z"
       style="fill:#263238"
       id="path135" />
    <path
       d="m 283.56,196 9.07,-51 12.67,2.25 a 14.19,14.19 0 0 1 7.05,3 9.76,9.76 0 0 1 3.15,5.54 20.8,20.8 0 0 1 -0.09,7.85 16.32,16.32 0 0 1 -2.66,6.75 10.44,10.44 0 0 1 -5,3.83 13.82,13.82 0 0 1 -7.22,0.38 l -5.61,-1 -4.22,23.78 z m 12.25,-27.63 3.28,0.59 a 13.83,13.83 0 0 0 5,0.16 4.47,4.47 0 0 0 3,-2 12.68,12.68 0 0 0 1.62,-4.75 22.76,22.76 0 0 0 0.46,-5.71 4,4 0 0 0 -1.76,-3.11 14.16,14.16 0 0 0 -5.16,-1.7 l -3.34,-0.59 z"
       style="fill:#263238"
       id="path137" />
    <path
       d="m 355.89,250.73 -6.77,-36.4 6.74,-1.26 1,5.17 A 12.42,12.42 0 0 1 360,213 a 8.3,8.3 0 0 1 3.82,-1.88 l 0.47,-0.09 c 0.14,0 0.35,0 0.61,0 l 1.38,7.43 a 11.84,11.84 0 0 0 -1.83,-0.21 9.92,9.92 0 0 0 -2,0.15 5.93,5.93 0 0 0 -2.73,1.26 7.83,7.83 0 0 0 -2,3.28 l 4.95,26.57 z"
       style="fill:#263238"
       id="path139" />
    <path
       d="m 354,336.68 a 13.46,13.46 0 0 1 -7.69,-0.52 12.14,12.14 0 0 1 -5.41,-4.4 22,22 0 0 1 -3.2,-7.42 l 6,-2.87 a 29,29 0 0 0 1.82,5.07 9.49,9.49 0 0 0 2.94,3.72 5.65,5.65 0 0 0 4.52,0.82 5.52,5.52 0 0 0 3.9,-2.32 6.48,6.48 0 0 0 0.59,-4.71 9.25,9.25 0 0 0 -2.61,-5.28 29.83,29.83 0 0 0 -4.76,-3.51 l -10,-6 a 14.75,14.75 0 0 1 -4.61,-4.13 15.8,15.8 0 0 1 -2.4,-6.23 q -1,-5.61 1.59,-9.29 2.59,-3.68 8.18,-4.72 a 16.83,16.83 0 0 1 5.47,-0.2 9.48,9.48 0 0 1 4.29,1.71 12,12 0 0 1 3.23,3.67 23.48,23.48 0 0 1 2.31,5.6 l -5.74,2.76 a 25.62,25.62 0 0 0 -1.62,-4.49 7,7 0 0 0 -2.61,-3 6,6 0 0 0 -4.31,-0.54 5.83,5.83 0 0 0 -3.88,2.2 5.64,5.64 0 0 0 -0.7,4.46 8.45,8.45 0 0 0 1.5,3.7 11.6,11.6 0 0 0 3.13,2.61 l 10,5.95 a 27.36,27.36 0 0 1 6.22,5.06 15.51,15.51 0 0 1 3.75,7.87 13.11,13.11 0 0 1 -0.36,6.82 10.82,10.82 0 0 1 -3.54,5 13.55,13.55 0 0 1 -6,2.61 z"
       style="fill:#263238"
       id="path141" />
    <path
       d="m 374.08,336 a 3.3,3.3 0 0 1 1.54,2 2,2 0 0 1 -0.3,1.64 2,2 0 0 1 -1.28,0.79 1.84,1.84 0 0 1 -1.39,-0.24 1.59,1.59 0 0 1 -0.74,-1.09 2.4,2.4 0 0 1 0.13,-1.24 2.57,2.57 0 0 0 0.19,-0.88 0.79,0.79 0 0 0 -0.55,-0.56 2.77,2.77 0 0 0 -1.42,0 q -3.36,0.63 -5.13,4.92 a 14.73,14.73 0 0 0 -1,8.5 6.08,6.08 0 0 0 1.69,3.52 3.58,3.58 0 0 0 3.26,0.79 6,6 0 0 0 3,-1.52 12.69,12.69 0 0 0 2.35,-2.89 l 0.11,-0.2 0.7,0.35 a 15.55,15.55 0 0 1 -2.3,3.39 9,9 0 0 1 -5,2.73 6.16,6.16 0 0 1 -4.94,-1.01 6.87,6.87 0 0 1 -2.65,-4.56 12.56,12.56 0 0 1 2.25,-9.47 q 3.09,-4.68 7.54,-5.52 a 5.11,5.11 0 0 1 3.94,0.55 z"
       style="fill:#263238"
       id="path143" />
    <path
       d="m 340.49,125.69 a 37.16,37.16 0 0 1 6.32,-2.8 v -1.47 a 6,6 0 0 0 -0.35,-2.45 2.46,2.46 0 0 0 -2.42,-1.15 3.36,3.36 0 0 0 -1.68,0.45 1.43,1.43 0 0 0 -0.79,1.27 4.51,4.51 0 0 0 0.09,0.7 c 0,0.33 0.08,0.54 0.08,0.63 a 1.43,1.43 0 0 1 -0.63,1.34 1.6,1.6 0 0 1 -0.86,0.23 1.43,1.43 0 0 1 -1.19,-0.51 1.74,1.74 0 0 1 -0.42,-1.13 3.6,3.6 0 0 1 1.49,-2.52 6.41,6.41 0 0 1 4.37,-1.28 q 3.35,0 4.53,2.17 a 7.43,7.43 0 0 1 0.64,3.46 v 6.91 a 4.33,4.33 0 0 0 0.14,1.38 0.9,0.9 0 0 0 0.93,0.67 1.54,1.54 0 0 0 0.65,-0.12 7.32,7.32 0 0 0 0.9,-0.59 v 0.9 a 5.54,5.54 0 0 1 -1.19,1.1 3.45,3.45 0 0 1 -2,0.66 1.9,1.9 0 0 1 -1.69,-0.76 3.47,3.47 0 0 1 -0.58,-1.81 16.14,16.14 0 0 1 -2.24,1.69 5.86,5.86 0 0 1 -3,0.93 3.61,3.61 0 0 1 -2.57,-1 3.54,3.54 0 0 1 -1.08,-2.65 4.91,4.91 0 0 1 2.55,-4.25 z m 6.32,-1.94 a 15.84,15.84 0 0 0 -3.27,1.44 q -2.49,1.55 -2.49,3.48 a 2.64,2.64 0 0 0 1,2.31 2.53,2.53 0 0 0 1.5,0.48 4.16,4.16 0 0 0 2.18,-0.63 1.89,1.89 0 0 0 1,-1.62 z"
       style="fill:#263238"
       id="path145" />
    <path
       d="m 321.54,242.41 a 37.34,37.34 0 0 1 6.32,-2.81 v -1.46 a 6,6 0 0 0 -0.34,-2.45 2.46,2.46 0 0 0 -2.43,-1.16 3.32,3.32 0 0 0 -1.67,0.45 1.42,1.42 0 0 0 -0.79,1.28 4.17,4.17 0 0 0 0.08,0.7 4.58,4.58 0 0 1 0.09,0.62 1.42,1.42 0 0 1 -0.64,1.35 1.6,1.6 0 0 1 -0.86,0.22 1.45,1.45 0 0 1 -1.19,-0.51 1.74,1.74 0 0 1 -0.41,-1.12 3.57,3.57 0 0 1 1.49,-2.53 6.38,6.38 0 0 1 4.36,-1.32 c 2.23,0 3.74,0.73 4.54,2.17 a 7.62,7.62 0 0 1 0.63,3.47 v 6.91 a 4.62,4.62 0 0 0 0.14,1.37 0.9,0.9 0 0 0 0.93,0.68 1.47,1.47 0 0 0 0.66,-0.13 6.33,6.33 0 0 0 0.89,-0.58 v 0.9 a 5.83,5.83 0 0 1 -1.19,1.1 3.5,3.5 0 0 1 -2,0.65 1.91,1.91 0 0 1 -1.7,-0.76 3.41,3.41 0 0 1 -0.58,-1.8 15.39,15.39 0 0 1 -2.24,1.68 5.83,5.83 0 0 1 -3,0.93 3.55,3.55 0 0 1 -2.56,-1 3.47,3.47 0 0 1 -1.09,-2.64 4.91,4.91 0 0 1 2.56,-4.21 z m 6.32,-1.95 a 15.82,15.82 0 0 0 -3.27,1.45 c -1.65,1 -2.48,2.18 -2.48,3.48 a 2.66,2.66 0 0 0 1,2.31 2.53,2.53 0 0 0 1.5,0.48 4.06,4.06 0 0 0 2.18,-0.64 1.85,1.85 0 0 0 1,-1.62 z"
       style="fill:#263238"
       id="path147" />
    <path
       d="m 302.39,108.05 a 3.51,3.51 0 0 1 0.85,1.35 l 0.11,0.33 0.53,-1.76 a 2,2 0 0 1 0.16,-0.4 c 0,-0.07 0.16,-0.11 0.34,-0.13 l 2.68,-0.3 c 0.14,0 0.22,0 0.24,0.08 a 0.48,0.48 0 0 1 0,0.29 c -0.06,0.21 -0.11,0.36 -0.15,0.48 -0.04,0.12 -0.08,0.28 -0.15,0.5 l -2.3,8.33 c -0.5,1.81 -0.93,3.38 -1.28,4.7 a 36.22,36.22 0 0 0 -0.86,4.08 0.58,0.58 0 0 0 0.18,0.47 0.63,0.63 0 0 0 0.43,0.15 0.9,0.9 0 0 0 0.46,-0.14 4.86,4.86 0 0 0 0.63,-0.42 l 0.41,-0.32 0.45,-0.38 0.58,-0.55 1.52,-1.49 0.56,0.49 a 25.2,25.2 0 0 1 -4,4.2 5,5 0 0 1 -2.87,1.1 1.64,1.64 0 0 1 -1.36,-0.6 2.35,2.35 0 0 1 -0.48,-1.51 13,13 0 0 1 0.31,-2.4 c 0.21,-1 0.42,-1.92 0.62,-2.64 q -0.42,0.7 -1.41,2 a 16.14,16.14 0 0 1 -2.42,2.6 11.44,11.44 0 0 1 -3.26,2.14 7,7 0 0 1 -2.32,0.42 4.75,4.75 0 0 1 -3.42,-1.55 6,6 0 0 1 -1.53,-4.39 q 0,-4.89 4.42,-10.2 4.57,-5.52 9.46,-5.52 a 4,4 0 0 1 2.87,0.99 z m -0.76,0.88 a 2.54,2.54 0 0 0 -1.88,-0.79 q -3.83,0 -7.12,5.83 c -1.93,3.41 -2.89,6.36 -2.89,8.83 a 3.82,3.82 0 0 0 0.8,2.71 2.59,2.59 0 0 0 2,0.85 q 3.51,0 6.76,-5.66 3.14,-5.15 3.13,-9.3 a 3.42,3.42 0 0 0 -0.8,-2.47 z"
       style="fill:#263238"
       id="path149" />
    <path
       d="m 345.89,249.91 a 3.51,3.51 0 0 1 0.85,1.35 l 0.11,0.33 0.53,-1.76 a 2,2 0 0 1 0.16,-0.4 c 0,-0.07 0.16,-0.11 0.34,-0.13 l 2.68,-0.3 c 0.14,0 0.22,0 0.24,0.08 a 0.51,0.51 0 0 1 0,0.3 c -0.06,0.2 -0.11,0.36 -0.15,0.47 -0.04,0.11 -0.08,0.28 -0.15,0.5 l -2.3,8.33 c -0.5,1.81 -0.93,3.38 -1.28,4.7 a 36.22,36.22 0 0 0 -0.86,4.08 0.58,0.58 0 0 0 0.18,0.47 0.63,0.63 0 0 0 0.43,0.15 0.9,0.9 0 0 0 0.46,-0.14 5.85,5.85 0 0 0 0.63,-0.41 l 0.41,-0.33 0.45,-0.38 0.58,-0.55 1.52,-1.49 0.56,0.49 a 25.2,25.2 0 0 1 -4,4.2 4.89,4.89 0 0 1 -2.87,1.1 1.64,1.64 0 0 1 -1.36,-0.6 2.33,2.33 0 0 1 -0.48,-1.51 13,13 0 0 1 0.31,-2.4 c 0.21,-1.05 0.42,-1.92 0.62,-2.64 q -0.42,0.7 -1.41,2 a 16.14,16.14 0 0 1 -2.42,2.6 11.44,11.44 0 0 1 -3.26,2.14 7,7 0 0 1 -2.32,0.42 4.75,4.75 0 0 1 -3.42,-1.55 6,6 0 0 1 -1.53,-4.39 q 0,-4.89 4.42,-10.2 Q 338.14,249 343,249 a 4,4 0 0 1 2.89,0.91 z m -0.76,0.89 a 2.52,2.52 0 0 0 -1.88,-0.8 q -3.83,0 -7.12,5.83 -2.89,5.13 -2.89,8.83 a 3.82,3.82 0 0 0 0.8,2.71 2.59,2.59 0 0 0 2,0.85 q 3.51,0 6.76,-5.66 3.14,-5.15 3.13,-9.3 a 3.38,3.38 0 0 0 -0.8,-2.46 z"
       style="fill:#263238"
       id="path151" />
    <path
       d="m 316.19,181.56 a 7,7 0 0 1 1.43,4.38 c 0,2.93 -1.3,5.79 -3.87,8.61 -2.57,2.82 -5.51,4.38 -8.53,4.38 a 6.31,6.31 0 0 1 -4.57,-1.65 6.15,6.15 0 0 1 -1.72,-4.66 q 0,-4.53 3.85,-8.67 3.85,-4.14 8.5,-4.24 c 2.32,0 3.95,0.62 4.91,1.85 z m -12.82,15.32 a 3,3 0 0 0 2.51,1.12 c 2.25,0 4.25,-1.69 6,-5.09 a 17.89,17.89 0 0 0 2.22,-8 7,7 0 0 0 -0.38,-2.51 2.63,2.63 0 0 0 -2.65,-1.8 c -2.1,0 -4.09,1.58 -5.93,4.74 a 17.09,17.09 0 0 0 -2.61,8.71 4.6,4.6 0 0 0 0.84,2.83 z"
       style="fill:#263238"
       id="path153" />
    <path
       d="m 331.62,342.29 a 2.56,2.56 0 0 0 0.1,-0.54 c 0,-0.18 0,-0.32 0,-0.43 a 0.78,0.78 0 0 0 -0.57,-0.86 9.68,9.68 0 0 0 -2.24,-0.13 v -0.69 l 2.15,-0.29 c 0.81,-0.11 1.34,-0.18 1.59,-0.23 0.78,-0.13 1.72,-0.34 2.83,-0.62 a 0.37,0.37 0 0 1 0.29,0.21 l -6.88,24.87 c -0.16,0.6 -0.25,0.95 -0.27,1.08 a 1.57,1.57 0 0 0 -0.05,0.37 1.38,1.38 0 0 0 0.15,0.67 0.54,0.54 0 0 0 0.54,0.28 c 0.49,0 1.14,-0.44 1.94,-1.32 a 21.63,21.63 0 0 0 2,-2.57 l 0.56,0.4 a 29.55,29.55 0 0 1 -2.78,3.64 5,5 0 0 1 -3.47,1.71 2.37,2.37 0 0 1 -1.32,-0.37 2,2 0 0 1 -0.89,-1.9 7.75,7.75 0 0 1 0.16,-1.39 c 0.08,-0.34 0.17,-0.74 0.29,-1.2 z"
       style="fill:#263238"
       id="path155" />
    <path
       d="m 326.15,176.36 q 7.5,-7.87 15.51,-7.88 a 7.47,7.47 0 0 1 4.71,1.36 4.83,4.83 0 0 1 1.74,4 q 0,5.46 -6.39,9.34 A 33.75,33.75 0 0 1 328.27,188 l -2.16,0.26 a 23.74,23.74 0 0 0 -0.68,2.49 11.62,11.62 0 0 0 -0.19,2.33 6.44,6.44 0 0 0 2.18,5.2 7.72,7.72 0 0 0 5.18,1.86 12,12 0 0 0 6,-1.9 49.6,49.6 0 0 0 5.27,-3.95 l 1,0.88 a 23.7,23.7 0 0 1 -4.9,4.43 19.33,19.33 0 0 1 -11.34,4.06 10,10 0 0 1 -7.06,-2.84 q -3,-2.84 -3,-8.15 -0.01,-8.42 7.58,-16.31 z m 12.29,5.08 q 4.55,-4 4.55,-8 a 3.59,3.59 0 0 0 -0.68,-2.29 2.43,2.43 0 0 0 -2,-0.85 7.28,7.28 0 0 0 -4.84,2.1 28.54,28.54 0 0 0 -4.27,4.75 37,37 0 0 0 -3.18,5.94 c -0.43,1 -0.89,2.16 -1.37,3.44 a 22.13,22.13 0 0 0 11.79,-5.09 z"
       style="fill:#263238"
       id="path157" />
    <path
       d="m 367.29,150.33 a 10.71,10.71 0 0 1 3.14,-2.32 3.56,3.56 0 0 1 -0.71,-0.58 1.16,1.16 0 0 1 -0.27,-0.8 2.44,2.44 0 0 1 1,-1.62 15.9,15.9 0 0 1 1.79,-1.36 5.44,5.44 0 0 1 -1.89,-1.17 3.66,3.66 0 0 1 -1,-2.64 5.45,5.45 0 0 1 2,-4.32 7.53,7.53 0 0 1 5,-1.72 6.42,6.42 0 0 1 2.66,0.49 3,3 0 0 1 1.27,0.82 h 2.33 v 1.38 h -1.76 c 0.07,0.26 0.12,0.48 0.16,0.69 a 6.41,6.41 0 0 1 0.05,0.88 5.15,5.15 0 0 1 -2.17,4.39 7.71,7.71 0 0 1 -4.66,1.6 3.64,3.64 0 0 1 -0.48,0 l -0.55,-0.09 c -0.17,0 -0.41,0.16 -0.7,0.5 a 1.36,1.36 0 0 0 -0.47,0.89 c 0,0.39 1.26,1.06 3.79,2 2.53,0.94 3.77,2.35 3.77,4.19 a 4.61,4.61 0 0 1 -1.89,3.62 c -1.27,1 -3.17,1.56 -5.72,1.56 a 7.05,7.05 0 0 1 -4.21,-1.13 3.38,3.38 0 0 1 -1.55,-2.78 3.68,3.68 0 0 1 1.07,-2.48 z m 8.85,4.62 a 2.84,2.84 0 0 0 1.35,-2.34 2.36,2.36 0 0 0 -0.7,-1.74 5.19,5.19 0 0 0 -1.23,-0.81 c -0.47,-0.23 -1.26,-0.56 -2.38,-1 a 11.3,11.3 0 0 0 -1.94,-0.65 q -0.45,0 -1.74,1.2 a 3.62,3.62 0 0 0 -1.29,2.71 3.16,3.16 0 0 0 2,3.16 6.59,6.59 0 0 0 2.55,0.44 5.61,5.61 0 0 0 3.38,-0.92 z m -3.68,-12.68 a 2,2 0 0 0 2,1 c 1,0 2,-0.65 2.77,-2 a 8.1,8.1 0 0 0 1.21,-4.35 2.79,2.79 0 0 0 -0.5,-1.78 1.77,1.77 0 0 0 -1.5,-0.65 3.54,3.54 0 0 0 -3.11,2.05 8,8 0 0 0 -1.18,3.95 3.7,3.7 0 0 0 0.31,1.78 z"
       style="fill:#263238"
       id="path159" />
    <path
       d="m 311.15,300.06 a 18.35,18.35 0 0 1 5.33,-3.92 5.84,5.84 0 0 1 -1.2,-1 1.94,1.94 0 0 1 -0.47,-1.36 4.17,4.17 0 0 1 1.67,-2.74 26.37,26.37 0 0 1 3,-2.31 9.54,9.54 0 0 1 -3.21,-2 6.23,6.23 0 0 1 -1.63,-4.47 9.2,9.2 0 0 1 3.44,-7.33 12.77,12.77 0 0 1 8.52,-2.92 10.79,10.79 0 0 1 4.5,0.84 5.17,5.17 0 0 1 2.16,1.38 h 3.94 v 2.35 h -3 a 11.84,11.84 0 0 1 0.27,1.17 11,11 0 0 1 0.08,1.49 8.74,8.74 0 0 1 -3.66,7.43 13,13 0 0 1 -7.9,2.71 6.86,6.86 0 0 1 -0.81,0 c -0.26,0 -0.57,-0.08 -0.94,-0.16 -0.37,-0.08 -0.69,0.28 -1.19,0.85 a 2.36,2.36 0 0 0 -0.79,1.51 c 0,0.67 2.14,1.79 6.42,3.39 4.28,1.6 6.39,4 6.39,7.09 a 7.8,7.8 0 0 1 -3.21,6.15 q -3.21,2.64 -9.69,2.64 a 11.75,11.75 0 0 1 -7.12,-1.93 5.68,5.68 0 0 1 -2.63,-4.7 6.34,6.34 0 0 1 1.73,-4.16 z m 15,7.84 a 4.82,4.82 0 0 0 2.29,-4 4,4 0 0 0 -1.19,-2.95 8.44,8.44 0 0 0 -2.08,-1.37 c -0.79,-0.39 -2.14,-0.95 -4,-1.68 a 18.44,18.44 0 0 0 -3.28,-1.09 c -0.51,0 -1.49,0.67 -3,2 a 6.12,6.12 0 0 0 -2.19,4.59 5.33,5.33 0 0 0 3.36,5.34 10.78,10.78 0 0 0 4.32,0.76 9.53,9.53 0 0 0 5.77,-1.6 z m -6.23,-21.48 a 3.46,3.46 0 0 0 3.36,1.78 q 2.63,0 4.68,-3.35 a 13.77,13.77 0 0 0 2.06,-7.37 4.8,4.8 0 0 0 -0.85,-3 3,3 0 0 0 -2.54,-1.09 c -2.17,0 -3.93,1.16 -5.26,3.47 a 13.37,13.37 0 0 0 -2,6.69 6.39,6.39 0 0 0 0.55,2.87 z"
       style="fill:#263238"
       id="path161" />
    <path
       d="m 341.41,210.6 a 3.56,3.56 0 0 1 0.12,-0.62 l 5.64,-20.36 h -4.44 a 2.5,2.5 0 0 1 0.12,-1 1.3,1.3 0 0 1 0.59,-0.41 24.79,24.79 0 0 0 4.59,-2.43 28.44,28.44 0 0 0 4.44,-4.51 l 0.47,-0.55 a 0.57,0.57 0 0 1 0.22,-0.19 0.57,0.57 0 0 1 0.28,-0.08 1.91,1.91 0 0 1 0.41,0.12 1.66,1.66 0 0 1 0.1,0.36 1.32,1.32 0 0 1 0,0.34 l -1.71,6.36 H 357 l -0.35,2 h -5 l -5.37,19.6 a 1.33,1.33 0 0 0 0.09,1 0.79,0.79 0 0 0 0.78,0.48 c 0.51,0 1.22,-0.5 2.13,-1.51 0.53,-0.55 1.42,-1.63 2.66,-3.24 l 0.76,0.44 -0.41,0.61 a 22.24,22.24 0 0 1 -4.43,5.23 6,6 0 0 1 -3.63,1.48 2.52,2.52 0 0 1 -2.84,-2.57 q -0.01,-0.23 0.02,-0.55 z"
       style="fill:#263238"
       id="path163" />
    <path
       d="m 360.71,104.46 h 1 a 18.77,18.77 0 0 0 1.52,5.16 5.14,5.14 0 0 0 4.79,3 4,4 0 0 0 3,-1.25 4.6,4.6 0 0 0 1.22,-3.33 6.12,6.12 0 0 0 -0.31,-2.1 6.77,6.77 0 0 0 -0.77,-1.49 l -2.42,-3.59 a 51.53,51.53 0 0 1 -2.75,-4.37 7.34,7.34 0 0 1 -0.84,-3.33 6.38,6.38 0 0 1 1.82,-4.48 6.78,6.78 0 0 1 5.18,-1.94 11.82,11.82 0 0 1 3.27,0.54 11,11 0 0 0 2.5,0.54 1.62,1.62 0 0 0 1.08,-0.29 2.78,2.78 0 0 0 0.65,-0.79 h 0.84 L 379.24,95 h -1 a 13,13 0 0 0 -1.14,-4.26 4.66,4.66 0 0 0 -4.43,-2.65 3.53,3.53 0 0 0 -2.29,0.8 2.83,2.83 0 0 0 -1,2.35 4.57,4.57 0 0 0 0.46,2.1 31.93,31.93 0 0 0 2.05,3.21 l 2.07,3 a 27,27 0 0 1 2.28,3.76 7.45,7.45 0 0 1 0.67,3.15 6.57,6.57 0 0 1 -2.68,5.31 9.88,9.88 0 0 1 -6.39,2.16 16.74,16.74 0 0 1 -3.41,-0.49 23.17,23.17 0 0 0 -2.57,-0.5 1.23,1.23 0 0 0 -0.86,0.26 2.34,2.34 0 0 0 -0.51,0.79 h -1 z"
       style="fill:#263238"
       id="path165" />
    <path
       d="m 365.18,249.11 a 2,2 0 0 1 1.55,-0.61 2.59,2.59 0 0 1 1.18,0.25 5.51,5.51 0 0 1 1.07,0.73 l 0.37,0.27 a 1.07,1.07 0 0 0 0.36,0.2 1.33,1.33 0 0 0 0.45,0.07 q 1.3,0 4.21,-3.46 2.91,-3.46 2.9,-5 a 33.29,33.29 0 0 0 -1,-5.87 q -1,-4.36 -1.93,-7.79 a 27.33,27.33 0 0 0 -2.4,-6.51 3.53,3.53 0 0 0 -3.19,-1.71 h -0.55 l -1.32,0.15 V 219 l 7.29,-1.42 h 0.56 c 0.45,-0.05 1.3,1.95 2.57,6 a 66.33,66.33 0 0 1 2.12,8 l 1.08,6.38 q 2.82,-4.71 4.12,-7.23 c 1.72,-3.3 2.57,-5.61 2.57,-6.93 a 2.59,2.59 0 0 0 -0.16,-0.9 1.44,1.44 0 0 0 -0.75,-0.76 l -0.45,-0.24 a 4,4 0 0 1 -1,-0.81 2.11,2.11 0 0 1 -0.58,-1.57 2,2 0 0 1 0.54,-1.4 2.12,2.12 0 0 1 1.6,-0.56 3,3 0 0 1 2.17,0.79 3.62,3.62 0 0 1 0.82,2.69 q 0,2.87 -3.12,9.2 a 92.48,92.48 0 0 1 -5.38,9.36 81.77,81.77 0 0 1 -6.38,8.73 q -4.26,4.85 -7.06,4.84 a 3.07,3.07 0 0 1 -1.94,-0.67 2.35,2.35 0 0 1 -0.31,-3.29 z"
       style="fill:#263238"
       id="path167" />
  </g>
  <g
     id="freepik--Character--inject-9"
     transform="translate(-42.07,-86.727046)">
    <path
       d="m 165.88,239.73 c 0,0 21.54,1.91 35.91,-1.44 14.37,-3.35 28.72,-23 28.72,-23 l 8.62,4.79 c 0,0 -9.58,17.23 -26.33,24.41 -16.75,7.18 -41.17,9.58 -51.23,4.79 -10.06,-4.79 4.31,-9.55 4.31,-9.55 z"
       style="fill:#263238"
       id="path170" />
    <path
       d="m 176.68,252.27 c -6.29,0 -11.74,-0.81 -15.32,-2.52 -2.65,-1.26 -4,-2.69 -3.85,-4.25 0.21,-3.48 7.4,-6 8.21,-6.25 a 0.5,0.5 0 0 1 0.21,0 c 0.21,0 21.63,1.87 35.74,-1.43 14.11,-3.3 28.33,-22.61 28.44,-22.82 a 0.49,0.49 0 0 1 0.64,-0.15 l 8.62,4.79 a 0.51,0.51 0 0 1 0.24,0.3 0.5,0.5 0 0 1 0,0.38 c -0.1,0.18 -9.86,17.47 -26.58,24.63 a 98.79,98.79 0 0 1 -36.35,7.32 z m -10.74,-12 c -2.11,0.73 -7.29,3 -7.44,5.33 -0.08,1.39 1.74,2.55 3.29,3.29 9.82,4.68 34,2.39 50.81,-4.79 14.94,-6.41 24.22,-21.07 25.84,-23.77 L 230.65,216 c -2.08,2.76 -15.27,19.67 -28.75,22.82 -13.76,3.18 -34.3,1.55 -35.96,1.41 z"
       style="fill:#263238"
       id="path172" />
    <path
       d="m 302.39,302.46 c 0,0 5.77,-6.85 5.41,-20.91 -0.36,-14.06 -7.58,-26 -7.58,-26 l -5,7.93 c 0,0 3.24,-11.9 -2.17,-22.72 -5.41,-10.82 -8.29,-16.23 -8.29,-16.23 0,0 -1.45,5.41 -2.89,9.74 -1.44,4.33 -0.36,-15.14 -3.6,-24.88 -3.24,-9.74 -17.72,-24.86 -29.27,-34.23 A 121,121 0 0 0 224.13,160 c 0,0 1.8,9 1.44,11.54 -0.36,2.54 -3.61,-0.36 -6.13,-4.33 -2.52,-3.97 -7.93,-16.95 -7.93,-16.95 A 134,134 0 0 0 180.85,138 c -16.23,-4 -51.21,-1.08 -51.21,-1.08 a 137.68,137.68 0 0 1 13,14.42 83.06,83.06 0 0 0 9.36,10.83 c 0,0 -11.69,-5.87 -18.19,-11.64 -6.5,-5.77 -17,-14.08 -25.61,-15.88 -8.61,-1.8 -34.46,5.16 -39.87,9.49 -5.41,4.33 -22,17 -22,17 0,0 20.92,37.46 37.51,42.86 16.59,5.4 24.16,4.34 24.16,4.34 l 11.18,-4.34 -7.59,6.45 c 0,0 12,3.65 33.4,6.89 21.4,3.24 25.4,2.53 35.86,5.77 10.46,3.24 36.43,-0.72 36.43,-0.72 l -7.94,5 c 0,0 5,4.69 16.23,7.93 a 103,103 0 0 1 20.92,9 L 240,246.2 c 0,0 9,10.46 15.14,13 6.14,2.54 14.79,6.49 14.79,6.49 l -7.57,1.44 c 0,0 13.34,11.18 18,17.31 4.66,6.13 15.18,19.47 22.03,18.02 z"
       style="fill:#92e3a9"
       id="path174" />
    <path
       d="m 191.31,161.59 a 0.49,0.49 0 0 1 -0.47,-0.34 C 186.6,148.53 176.27,138.11 176.17,138 a 0.5,0.5 0 0 1 0,-0.7 0.5,0.5 0 0 1 0.71,0 c 0.1,0.1 10.59,10.69 14.9,23.63 a 0.5,0.5 0 0 1 -0.31,0.64 z"
       style="fill:#263238"
       id="path176" />
    <path
       d="m 198.88,167.36 a 0.49,0.49 0 0 1 -0.48,-0.39 c -2.47,-10.91 -7.42,-16.67 -7.47,-16.73 a 0.50328918,0.50328918 0 0 1 0.76,-0.66 c 0.21,0.24 5.16,6 7.68,17.17 a 0.5,0.5 0 0 1 -0.38,0.6 z"
       style="fill:#263238"
       id="path178" />
    <path
       d="m 259.11,215.69 a 0.49,0.49 0 0 1 -0.49,-0.43 c -3.55,-25.88 -13.16,-38.95 -13.25,-39.08 a 0.5,0.5 0 0 1 0.8,-0.6 c 0.1,0.13 9.85,13.39 13.44,39.54 a 0.5,0.5 0 0 1 -0.43,0.56 z"
       style="fill:#263238"
       id="path180" />
    <path
       d="m 246.49,192.61 a 0.51,0.51 0 0 1 -0.5,-0.43 59.63,59.63 0 0 0 -5.71,-17.18 0.50119856,0.50119856 0 0 1 0.88,-0.48 61,61 0 0 1 5.84,17.48 0.5,0.5 0 0 1 -0.42,0.57 z"
       style="fill:#263238"
       id="path182" />
    <path
       d="m 259.83,247.06 a 0.47,0.47 0 0 1 -0.16,0 59.24,59.24 0 0 0 -8.92,-1.78 0.5042073,0.5042073 0 0 1 0.13,-1 60.61,60.61 0 0 1 9.11,1.83 0.50635956,0.50635956 0 0 1 -0.16,1 z"
       style="fill:#263238"
       id="path184" />
    <path
       d="m 95.74,203.79 a 0.50202092,0.50202092 0 0 1 -0.09,-1 c 0.19,0 19.59,-3.68 34.51,-10.43 a 0.5,0.5 0 1 1 0.41,0.91 c -15,6.8 -34.54,10.46 -34.74,10.5 z"
       style="fill:#263238"
       id="path186" />
    <path
       d="m 106.92,197.66 a 0.5,0.5 0 0 1 -0.48,-0.36 0.49,0.49 0 0 1 0.34,-0.62 c 0.13,0 13.49,-4 19,-6.82 a 0.50092415,0.50092415 0 1 1 0.46,0.89 c -5.61,2.89 -18.65,6.72 -19.2,6.89 z"
       style="fill:#263238"
       id="path188" />
    <path
       d="m 163.54,183.23 a 0.51,0.51 0 0 1 -0.48,-0.36 c -3.17,-10.57 -8.47,-16 -8.53,-16 a 0.5,0.5 0 0 1 0,-0.7 0.5,0.5 0 0 1 0.71,0 c 0.22,0.22 5.54,5.62 8.78,16.44 a 0.5,0.5 0 0 1 -0.34,0.62 z"
       style="fill:#263238"
       id="path190" />
    <path
       d="m 202.24,201.15 c -11.48,-3.58 -31.75,-8.55 -31.75,-8.55 -16.41,-2.8 -96.44,-24.81 -96.44,-24.81 0,0 14.8,7.61 57.62,19.61 42.82,12 65.8,16.1 82.92,23.19 23.06,9.54 64.74,45.64 73.15,64.85 7.48,17.11 28.37,79.57 32.84,93 a 0.17102631,0.17102631 0 0 0 0.33,-0.09 c -1.31,-6.58 -5,-24.13 -9.09,-37.83 -5.2,-17.21 -14.08,-41.88 -16.88,-49.08 a 106.87,106.87 0 0 0 -16.42,-28 l -5.59,-6 c 0,0 -24.41,-26 -43.22,-36.42"
       style="fill:#ffffff"
       id="path192" />
    <path
       d="m 320.74,369.06 a 0.66,0.66 0 0 1 -0.63,-0.46 c -4.17,-12.52 -25.33,-75.82 -32.83,-93 -8.08,-18.47 -48.95,-54.69 -72.88,-64.59 -10.41,-4.31 -23.22,-7.57 -41,-12.07 -11.22,-2.86 -25.19,-6.41 -41.9,-11.1 C 89.16,176 74,168.32 73.82,168.24 a 0.51,0.51 0 0 1 -0.24,-0.63 0.5,0.5 0 0 1 0.6,-0.3 c 0.8,0.22 80.2,22 96.39,24.8 0.24,0.06 20.45,5 31.81,8.56 a 0.52060061,0.52060061 0 0 1 -0.29,1 c -11.34,-3.52 -31.52,-8.48 -31.72,-8.53 -13.45,-2.3 -70.47,-17.72 -89.92,-23 7.87,3.23 23.88,9.16 51.36,16.86 16.7,4.68 30.66,8.23 41.88,11.09 17.77,4.52 30.62,7.78 41.09,12.11 24.1,10 65.26,46.49 73.41,65.12 6.77,15.47 24.61,68.34 31.14,87.88 -1.75,-8.38 -4.71,-21.61 -8,-32.46 C 306,313 297,288.11 294.47,281.62 a 106.94,106.94 0 0 0 -16.34,-27.86 l -5.57,-6 c -0.24,-0.26 -24.57,-26.07 -43.09,-36.32 a 0.51,0.51 0 0 1 -0.2,-0.68 0.5,0.5 0 0 1 0.68,-0.19 c 18.66,10.32 43.1,36.24 43.34,36.51 l 5.59,6 a 107.73,107.73 0 0 1 16.52,28.16 c 2.53,6.5 11.55,31.44 16.9,49.11 4.12,13.66 7.74,31 9.1,37.88 a 0.68,0.68 0 0 1 -0.48,0.79 z"
       style="fill:#8f8f8f"
       id="path194" />
    <path
       d="m 225.22,209.91 a 0.39,0.39 0 0 1 -0.18,0 l -17.52,-6.79 a 0.50328918,0.50328918 0 0 1 0.36,-0.94 l 17.52,6.8 a 0.5,0.5 0 0 1 0.29,0.65 0.52,0.52 0 0 1 -0.47,0.28 z"
       style="fill:#8f8f8f"
       id="path196" />
    <path
       d="m 152.42,199.33 c 0,0 4.77,-0.53 6.89,1.32 2.12,1.85 4.9,6.1 6.36,6.63 1.46,0.53 5.17,-0.27 5.3,1.06 a 13.3,13.3 0 0 1 -0.92,4.11 c 0,0 2.78,6.36 3,8.61 a 4.65,4.65 0 0 1 -1.72,4.51 c -1.06,0.8 -4.9,1.19 -4.9,1.19 l 0.13,7 -15.64,0.66 -1.46,-5.83 -6.23,-2 c 0,0 1.46,-1.72 1.72,-9.28 0.26,-7.56 1.06,-14.45 3.71,-17 2.65,-2.55 3.76,-0.98 3.76,-0.98 z"
       style="fill:#ffffff"
       id="path198" />
    <path
       d="m 151,235 a 0.5,0.5 0 0 1 -0.49,-0.38 l -1.43,-5.62 -6,-1.9 a 0.49,0.49 0 0 1 -0.33,-0.34 0.48,0.48 0 0 1 0.1,-0.46 c 0,0 1.35,-1.81 1.6,-9 0.35,-9.76 1.54,-15.1 3.87,-17.32 1.21,-1.15 2.31,-1.69 3.25,-1.61 a 1.83,1.83 0 0 1 1,0.4 c 1,-0.09 5,-0.29 7,1.46 a 32.08,32.08 0 0 1 3,3.28 c 1.17,1.41 2.5,3 3.21,3.26 A 8.37,8.37 0 0 0 168,207 c 1.63,0 3.31,0 3.44,1.29 a 12.34,12.34 0 0 1 -0.89,4.14 c 0.48,1.09 2.76,6.47 3,8.58 a 5.11,5.11 0 0 1 -1.92,5 c -0.94,0.71 -3.59,1.1 -4.69,1.24 l 0.12,6.57 a 0.51,0.51 0 0 1 -0.48,0.51 z m -7,-8.61 5.64,1.8 a 0.5,0.5 0 0 1 0.33,0.36 l 1.36,5.44 14.75,-0.63 -0.12,-6.54 a 0.49,0.49 0 0 1 0.45,-0.5 c 1.43,-0.15 4,-0.58 4.65,-1.1 a 4.16,4.16 0 0 0 1.53,-4 c -0.26,-2.15 -3,-8.41 -3,-8.47 a 0.46,0.46 0 0 1 0,-0.38 12.75,12.75 0 0 0 0.9,-3.88 c 0,-0.37 -1.62,-0.38 -2.46,-0.39 a 8.48,8.48 0 0 1 -2.52,-0.25 c -1,-0.35 -2.2,-1.84 -3.64,-3.56 A 30,30 0 0 0 159,201 c -1.93,-1.69 -6.46,-1.21 -6.51,-1.21 a 0.48,0.48 0 0 1 -0.45,-0.19 0.76,0.76 0 0 0 -0.53,-0.22 c -0.37,0 -1.16,0.12 -2.44,1.34 -2.76,2.62 -3.35,10.74 -3.56,16.62 -0.21,5.5 -1.01,7.98 -1.51,9 z"
       style="fill:#263238"
       id="path200" />
    <path
       d="m 159.71,211.09 a 0.5,0.5 0 0 1 -0.5,-0.4 0.51,0.51 0 0 1 0.4,-0.59 c 2.37,-0.45 2.64,-2 2.65,-2.1 a 0.50487622,0.50487622 0 0 1 1,0.14 c 0,0.1 -0.35,2.35 -3.45,2.94 z"
       style="fill:#263238"
       id="path202" />
    <path
       d="m 157.06,206.32 a 0.45,0.45 0 0 1 -0.2,0 0.51,0.51 0 0 1 -0.27,-0.65 3,3 0 0 1 1.68,-1.75 3.4,3.4 0 0 1 2.46,0.17 0.5,0.5 0 0 1 0.22,0.67 0.49,0.49 0 0 1 -0.67,0.22 2.36,2.36 0 0 0 -1.67,-0.12 2,2 0 0 0 -1.09,1.19 0.49,0.49 0 0 1 -0.46,0.27 z"
       style="fill:#263238"
       id="path204" />
    <path
       d="m 167,217 a 4.6,4.6 0 0 1 -2.55,-0.78 0.5,0.5 0 0 1 -0.15,-0.69 0.51,0.51 0 0 1 0.7,-0.15 3.82,3.82 0 0 0 4.44,-0.23 0.5,0.5 0 0 1 0.7,0.07 0.49,0.49 0 0 1 -0.06,0.7 A 5.07,5.07 0 0 1 167,217 Z"
       style="fill:#263238"
       id="path206" />
    <polygon
       points="166.33,231.14 166.47,226.76 161.16,225.97 "
       style="fill:#263238"
       id="polygon208" />
    <path
       d="m 166.33,231.64 a 0.49,0.49 0 0 1 -0.35,-0.15 l -5.17,-5.17 a 0.5,0.5 0 0 1 -0.09,-0.58 0.52,0.52 0 0 1 0.52,-0.27 l 5.3,0.8 a 0.52,0.52 0 0 1 0.43,0.51 l -0.14,4.37 a 0.49,0.49 0 0 1 -0.31,0.45 0.41,0.41 0 0 1 -0.19,0.04 z m -3.74,-4.95 3.28,3.28 0.08,-2.78 z"
       style="fill:#263238"
       id="path210" />
    <path
       d="m 153.48,217.09 c 0,0 1.45,-1.86 0.66,-2.52 -0.79,-0.66 -3.85,-2.65 -4,-4.24 -0.15,-1.59 1.46,-2.92 1.33,-5.83 -0.13,-2.91 -0.4,-5 1.46,-6.1 1.86,-1.1 5.3,0.79 6.49,-1.06 1.19,-1.85 0.13,-7.82 -4.37,-10.47 -4.5,-2.65 -12.73,0.26 -13.52,4 -0.79,3.74 1.59,3.85 0.66,4.64 -0.93,0.79 -4.91,1.19 -6.1,3.18 a 7.22,7.22 0 0 0 -1.06,2.79 c -0.26,0.53 -5.7,3.58 -7,8.48 -1.3,4.9 0.39,13.26 7.15,16.83 6.76,3.57 13.52,4.51 17.1,1.6 3.58,-2.91 2,-6.1 2,-6.1 0,0 -6,2.38 -6.89,-2.39 -0.89,-4.77 6.09,-2.81 6.09,-2.81 z"
       style="fill:#263238"
       id="path212" />
    <path
       d="M 146.56,230.58 A 25.8,25.8 0 0 1 135,227.21 c -7.23,-3.83 -8.69,-12.65 -7.41,-17.41 1.07,-4 4.64,-6.7 6.35,-8 a 8.31,8.31 0 0 0 0.74,-0.6 1.16,1.16 0 0 0 0.05,-0.28 5.71,5.71 0 0 1 1,-2.49 c 0.87,-1.44 2.87,-2.09 4.48,-2.61 a 7,7 0 0 0 1.72,-0.7 v 0 l -0.15,-0.21 c -0.43,-0.59 -1.22,-1.68 -0.69,-4.14 0.35,-1.63 1.93,-3.18 4.34,-4.24 2.65,-1.16 6.84,-1.88 9.92,-0.07 a 10.81,10.81 0 0 1 4.81,6.73 6.22,6.22 0 0 1 -0.27,4.45 c -0.83,1.29 -2.46,1.14 -3.9,1 a 5.18,5.18 0 0 0 -2.77,0.2 c -1.38,0.79 -1.37,2.25 -1.23,5 v 0.66 a 8.5,8.5 0 0 1 -0.85,4 4.13,4.13 0 0 0 -0.48,1.84 c 0.09,1.09 2.19,2.67 3.2,3.43 0.25,0.19 0.46,0.35 0.6,0.47 1.11,0.92 -0.3,2.83 -0.59,3.21 a 0.51,0.51 0 0 1 -0.53,0.17 c -1,-0.29 -3.94,-0.81 -5.06,0.22 a 2,2 0 0 0 -0.41,2 2.91,2.91 0 0 0 1.42,2.16 c 1.84,1 4.77,-0.14 4.8,-0.15 a 0.51,0.51 0 0 1 0.63,0.24 c 0,0 1.72,3.58 -2.12,6.71 a 9.4,9.4 0 0 1 -6.04,1.78 z m 4.3,-44.24 a 12.91,12.91 0 0 0 -5.05,1.08 c -2.09,0.91 -3.5,2.23 -3.78,3.53 a 3.59,3.59 0 0 0 0.53,3.34 c 0.26,0.36 0.69,1 0,1.57 a 6.55,6.55 0 0 1 -2.06,0.89 c -1.45,0.47 -3.26,1.05 -3.93,2.17 a 4.79,4.79 0 0 0 -0.87,2.11 1.75,1.75 0 0 1 -0.17,0.64 c -0.11,0.21 -0.33,0.39 -1,0.9 -1.63,1.25 -5,3.85 -6,7.49 -1.2,4.45 0.16,12.69 6.91,16.26 6.92,3.68 13.26,4.31 16.56,1.68 2.52,-2.05 2.26,-4.2 2,-5.08 -1,0.32 -3.39,0.89 -5.16,-0.07 a 3.93,3.93 0 0 1 -1.92,-2.85 2.94,2.94 0 0 1 0.71,-2.91 c 1.49,-1.38 4.63,-0.79 5.67,-0.54 0.44,-0.64 0.75,-1.4 0.55,-1.57 -0.2,-0.17 -0.33,-0.25 -0.56,-0.43 -1.68,-1.26 -3.48,-2.73 -3.6,-4.15 a 5,5 0 0 1 0.56,-2.31 7.61,7.61 0 0 0 0.77,-3.54 v -0.66 c -0.14,-2.66 -0.24,-4.77 1.74,-5.9 a 5.84,5.84 0 0 1 3.35,-0.33 c 1.53,0.14 2.5,0.17 3,-0.56 a 5.35,5.35 0 0 0 0.13,-3.68 9.67,9.67 0 0 0 -4.34,-6.09 7.71,7.71 0 0 0 -4.04,-0.99 z"
       style="fill:#263238"
       id="path214" />
    <path
       d="m 127.76,215.76 c 0,0 -6.76,-6.23 -16.17,-5.3 -9.41,0.93 -9.28,9.68 -13.12,12.33 -3.84,2.65 -9.55,0.13 -7,-3.45 2.55,-3.58 1.06,-6.49 -0.93,-7 -1.99,-0.51 -9.67,-2.12 -12.06,11.13 -2.39,13.25 6.36,26 17.5,22.67 11.14,-3.33 15.64,-17 18.82,-23.6 3.18,-6.6 11,-3.58 13.26,-2.38 2.26,1.2 1.59,0 1.45,-0.4 -0.14,-0.4 -1.75,-4 -1.75,-4 z"
       style="fill:#263238"
       id="path216" />
    <path
       d="M 92.41,247.15 A 12.56,12.56 0 0 1 84,243.79 c -5.07,-4.55 -7.44,-12.56 -6,-20.43 1,-5.29 2.85,-8.87 5.64,-10.65 a 8.68,8.68 0 0 1 7,-0.88 3.57,3.57 0 0 1 2.36,2.28 c 0.35,0.95 0.66,2.93 -1.16,5.52 a 1.93,1.93 0 0 0 0,2.7 c 1.22,1.23 4.11,1.56 6.3,0 1.22,-0.85 2,-2.38 2.95,-4.16 1.77,-3.4 4,-7.62 10.41,-8.26 a 22.78,22.78 0 0 1 16.56,5.44 0.48,0.48 0 0 1 0.12,0.16 c 0.16,0.37 1.6,3.61 1.74,4 v 0.12 c 0.12,0.31 0.35,0.9 -0.06,1.27 -0.41,0.37 -1.18,0.12 -2.15,-0.39 -0.5,-0.27 -5,-2.57 -8.8,-1.33 a 6.38,6.38 0 0 0 -3.77,3.49 c -0.43,0.91 -0.9,1.95 -1.39,3.07 -3.15,7.11 -7.92,17.86 -17.74,20.79 a 13.19,13.19 0 0 1 -3.6,0.62 z M 88,212.47 a 7.11,7.11 0 0 0 -3.85,1.09 c -2.55,1.62 -4.3,5 -5.2,10 -1.35,7.53 0.89,15.18 5.71,19.5 a 11.37,11.37 0 0 0 11.15,2.6 c 9.39,-2.79 14,-13.29 17.11,-20.23 0.51,-1.14 1,-2.19 1.41,-3.1 a 7.31,7.31 0 0 1 4.36,-4 c 4.17,-1.37 9,1.1 9.58,1.38 a 5.48,5.48 0 0 0 0.81,0.38 v 0 l -0.06,-0.16 c -0.09,-0.27 -1,-2.45 -1.66,-3.84 -0.76,-0.65 -7.15,-5.94 -15.71,-5.1 -5.9,0.58 -7.88,4.37 -9.62,7.72 -1,1.82 -1.84,3.54 -3.27,4.52 -2.64,1.82 -6,1.38 -7.58,-0.16 a 2.94,2.94 0 0 1 -0.14,-4 c 1.56,-2.21 1.32,-3.83 1,-4.6 A 2.55,2.55 0 0 0 90.35,212.82 9.23,9.23 0 0 0 88,212.47 Z"
       style="fill:#263238"
       id="path218" />
    <path
       d="m 149.9,242.14 c 0,0 -2.79,-8.62 -1.2,-9.54 1.59,-0.92 19,-1.46 20,-0.67 a 2.94,2.94 0 0 1 1.06,2.79 c 0,1.06 -0.26,8.08 -0.26,8.08 z"
       style="fill:#92e3a9"
       id="path220" />
    <path
       d="m 169.52,243.3 v 0 l -19.62,-0.66 a 0.5,0.5 0 0 1 -0.46,-0.35 c -0.87,-2.7 -2.72,-9.1 -1,-10.12 1.72,-1.02 19.3,-1.59 20.57,-0.64 a 3.41,3.41 0 0 1 1.26,3.19 c 0,1.06 -0.25,7.82 -0.27,8.1 a 0.5,0.5 0 0 1 -0.48,0.48 z m -19.25,-1.65 18.76,0.64 c 0.06,-1.62 0.25,-6.7 0.25,-7.57 0,-0.87 0,-1.74 -0.86,-2.39 -1.35,-0.68 -18.1,-0.1 -19.46,0.7 -0.65,0.38 -0.04,4.36 1.31,8.62 z"
       style="fill:#263238"
       id="path222" />
    <path
       d="m 127.77,308.94 c 0,0 -4.44,8 -8.67,16.28 -4.23,8.28 -8,14.37 -8,14.37 0,0 -6.34,-11 -10.15,-15.64 C 97.14,319.31 88,308.31 87.82,307 c -0.18,-1.31 0.21,0 -0.22,-1.27 -0.43,-1.27 2.75,-8.24 2.54,-10.14 -0.21,-1.9 -4.86,-4.87 -8.24,-6.35 -3.38,-1.48 -12.9,-6.09 -16.9,-7.35 -4,-1.26 -5.29,0.21 -4.44,1.48 0.85,1.27 11.84,14.79 14.79,18.81 2.95,4.02 16.48,29.82 18.65,34.88 2.17,5.06 13.74,22.62 15.85,23.46 2.11,0.84 4.86,-1.27 5.92,-1.69 1.06,-0.42 16.91,-13.95 21.77,-18.39 4.86,-4.44 7.61,-6.76 7.61,-6.76 0,0 5.92,15.22 11.63,27.05 5.71,11.83 8.62,17.34 9.22,23.27 0.6,5.93 -3.17,15 -0.42,24.73 2.75,9.73 7.82,22 8.87,25.15 1.05,3.15 0.85,9.73 0.85,9.73 0,0 -4,4.44 -5.07,8 -1.07,3.56 5.7,4 7,4 1.3,0 6.13,4.22 8.46,5.28 2.33,1.06 6.13,3.59 10.36,3.17 4.23,-0.42 -0.64,-3.38 -1.69,-5.07 C 193.31,457.3 192,454 189.07,447 c -2.93,-7 -4,-10.78 -4.23,-12.47 -0.23,-1.69 -3.17,-28.75 -3.59,-40.17 -0.42,-11.42 -1.25,-11.85 -1.25,-20.94 0,-9.09 -3,-27.48 -5.92,-40.59 -2.92,-13.11 -6.55,-19.24 -6.55,-19.24 z"
       style="fill:#ffffff"
       id="path224" />
    <path
       d="m 195.09,464.65 c -3.19,0 -6.05,-1.47 -8.19,-2.56 -0.52,-0.27 -1,-0.51 -1.42,-0.7 a 33.23,33.23 0 0 1 -4.21,-2.73 c -1.48,-1.06 -3.5,-2.51 -4,-2.51 0,0 -5.39,0 -7.08,-2.28 a 2.56,2.56 0 0 1 -0.37,-2.38 c 1,-3.34 4.35,-7.29 5.06,-8.09 0,-1.07 0.09,-6.61 -0.83,-9.37 -0.3,-0.89 -0.93,-2.55 -1.73,-4.65 -2.07,-5.4 -5.19,-13.56 -7.15,-20.53 -1.75,-6.18 -0.91,-12 -0.17,-17.08 a 33.44,33.44 0 0 0 0.57,-7.73 c -0.55,-5.15 -3,-10.16 -7.39,-19.24 l -1.9,-3.8 c -5,-10.33 -10.19,-23.39 -11.39,-26.44 -1,0.88 -3.47,3 -7.06,6.3 -4.53,4.14 -20.72,18 -21.93,18.48 -0.2,0.09 -0.51,0.26 -0.87,0.46 -1.41,0.79 -3.55,2 -5.42,1.24 -2.44,-1 -14.14,-19 -16.13,-23.74 -1.99,-4.74 -15.55,-30.71 -18.54,-34.77 -1.61,-2.19 -5.58,-7.17 -9.08,-11.56 -3,-3.74 -5.33,-6.69 -5.73,-7.28 a 1.61,1.61 0 0 1 0,-1.9 c 0.75,-1 2.58,-1.11 5,-0.33 2.92,0.92 8.7,3.61 12.92,5.57 1.66,0.77 3.09,1.43 4,1.85 3.16,1.38 8.28,4.44 8.54,6.74 0.12,1.06 -0.61,3.23 -1.37,5.52 -0.54,1.62 -1.35,4.05 -1.19,4.52 0.23,0.71 0.28,0.84 0.18,1 -0.1,0.16 0,0.18 0,0.35 0.28,1.16 8.42,11.09 11.9,15.33 l 1.1,1.35 c 3.26,4 8.28,12.43 9.77,15 1.11,-1.85 4.23,-7.1 7.58,-13.63 4.18,-8.15 8.63,-16.21 8.67,-16.29 a 0.48,0.48 0 0 1 0.5,-0.25 l 39.74,4.65 a 0.52,0.52 0 0 1 0.37,0.24 c 0.15,0.25 3.67,6.35 6.61,19.38 2.88,12.73 5.93,31.32 5.93,40.7 a 85.36,85.36 0 0 0 0.52,10 c 0.26,2.58 0.55,5.5 0.75,10.89 0.42,11.47 3.39,38.55 3.59,40.11 0.13,1.05 0.8,4.35 4.19,12.34 0.84,2 1.54,3.67 2.15,5.12 a 56.43,56.43 0 0 0 3.1,6.86 10.27,10.27 0 0 0 1.41,1.53 c 1.2,1.16 2.34,2.26 2,3.25 -0.27,0.79 -1.32,1 -2.08,1.06 -0.25,-0.02 -0.59,0 -0.92,0 z m -50,-131.47 h 0.13 a 0.51,0.51 0 0 1 0.34,0.3 c 0.06,0.16 6,15.34 11.61,27 l 1.86,3.84 c 4.46,9.19 6.92,14.25 7.49,19.57 a 34.24,34.24 0 0 1 -0.58,8 c -0.73,5 -1.55,10.69 0.14,16.67 1.95,6.93 5.06,15.06 7.12,20.44 0.81,2.11 1.44,3.78 1.75,4.69 1.07,3.22 0.88,9.63 0.87,9.9 a 0.48,0.48 0 0 1 -0.13,0.32 c 0,0.05 -3.95,4.4 -5,7.84 a 1.6,1.6 0 0 0 0.22,1.5 c 1.14,1.53 5,1.88 6.27,1.88 0.82,0 2.29,1 4.63,2.69 a 30.94,30.94 0 0 0 4,2.64 c 0.43,0.19 0.92,0.44 1.46,0.72 2.25,1.15 5.34,2.72 8.64,2.4 0.9,-0.09 1.21,-0.29 1.24,-0.39 0.13,-0.38 -1.09,-1.56 -1.74,-2.2 a 10.28,10.28 0 0 1 -1.57,-1.72 57.31,57.31 0 0 1 -3.18,-7 c -0.6,-1.44 -1.3,-3.13 -2.14,-5.11 -3.32,-7.81 -4.09,-11.25 -4.26,-12.6 -0.2,-1.57 -3.17,-28.7 -3.6,-40.21 -0.2,-5.35 -0.49,-8.26 -0.74,-10.82 a 85,85 0 0 1 -0.53,-10.12 c 0,-9.3 -3,-27.8 -5.91,-40.48 -2.6,-11.53 -5.73,-17.69 -6.37,-18.88 L 128,309.48 c -0.83,1.52 -4.77,8.7 -8.49,16 -4.19,8.17 -8,14.35 -8.06,14.41 a 0.52,0.52 0 0 1 -0.43,0.23 0.46,0.46 0 0 1 -0.42,-0.25 c -0.07,-0.1 -6.37,-11 -10.11,-15.57 l -1.1,-1.35 c -7.53,-9.19 -11.93,-14.72 -12.11,-15.8 a 2.25,2.25 0 0 1 0,-0.78 c 0,-0.08 -0.08,-0.22 -0.14,-0.41 -0.25,-0.75 0.29,-2.45 1.19,-5.15 0.66,-2 1.42,-4.26 1.32,-5.1 -0.16,-1.52 -4.32,-4.35 -7.94,-5.94 -1,-0.41 -2.39,-1.08 -4.06,-1.86 -4.2,-1.95 -10,-4.62 -12.8,-5.52 -2.53,-0.79 -3.67,-0.39 -4,0 a 0.67,0.67 0 0 0 0.07,0.75 c 0.37,0.55 2.95,3.79 5.68,7.21 3.51,4.39 7.48,9.38 9.11,11.58 3,4.09 16.65,30.18 18.66,35 2.22,5.32 13.72,22.44 15.58,23.19 1.42,0.56 3.3,-0.49 4.55,-1.18 a 8.66,8.66 0 0 1 1,-0.51 c 1.08,-0.51 16.44,-13.56 21.63,-18.3 4.81,-4.39 7.59,-6.75 7.62,-6.78 a 0.54,0.54 0 0 1 0.35,-0.17 z"
       style="fill:#263238"
       id="path226" />
    <path
       d="m 181.25,394.34 c -0.42,-11.41 -1.27,-11.83 -1.27,-20.92 0,-9.09 -3,-27.48 -5.92,-40.59 -2.92,-13.11 -6.55,-19.24 -6.55,-19.24 l -39.74,-4.65 c 0,0 -4.44,8 -8.67,16.28 -4.23,8.28 -8,14.37 -8,14.37 0,0 -6.34,-11 -10.15,-15.64 -1.71,-2.09 -4.49,-5.47 -7,-8.67 a 19,19 0 0 0 -7.52,6.58 c 3.5,6.66 6.66,13 7.6,15.2 2.11,5.07 13.74,22.62 15.85,23.46 2.11,0.84 4.86,-1.27 5.92,-1.69 1.06,-0.42 16.91,-13.95 21.77,-18.39 4.86,-4.44 7.61,-6.76 7.61,-6.76 0,0 5.92,15.22 11.63,27.05 5.71,11.83 8.59,17.34 9.19,23.27 0.6,5.93 -3.17,15 -0.42,24.73 1.65,5.84 4.13,12.58 6.09,17.73 a 57.7,57.7 0 0 0 12.19,-0.8 c -0.94,-9.38 -2.33,-23.77 -2.61,-31.32 z"
       style="fill:#263238"
       id="path228" />
    <path
       d="m 174,427 c -0.79,0 -1.58,0 -2.36,-0.05 a 0.5,0.5 0 0 1 -0.45,-0.32 c -2,-5.2 -4.45,-11.92 -6.1,-17.78 -1.75,-6.18 -0.91,-12 -0.17,-17.08 a 33.44,33.44 0 0 0 0.57,-7.73 c -0.55,-5.15 -3,-10.16 -7.39,-19.24 l -1.82,-3.8 c -5,-10.33 -10.19,-23.39 -11.39,-26.44 -1,0.88 -3.47,3 -7.06,6.3 -4.53,4.14 -20.72,18 -21.93,18.48 -0.2,0.09 -0.51,0.26 -0.87,0.46 -1.42,0.79 -3.55,2 -5.42,1.24 -2.44,-1 -14.14,-19 -16.13,-23.74 -0.87,-2.1 -3.85,-8.05 -7.57,-15.16 a 0.49,0.49 0 0 1 0,-0.51 19.59,19.59 0 0 1 7.71,-6.74 0.51,0.51 0 0 1 0.62,0.13 c 2.08,2.6 4.31,5.32 6,7.37 l 1.07,1.3 c 3.26,4 8.28,12.43 9.77,15 1.11,-1.85 4.23,-7.1 7.58,-13.63 4.18,-8.15 8.63,-16.21 8.67,-16.29 a 0.48,0.48 0 0 1 0.5,-0.25 l 39.74,4.65 a 0.52,0.52 0 0 1 0.37,0.24 c 0.15,0.25 3.67,6.35 6.61,19.38 2.87,12.73 5.93,31.32 5.93,40.7 a 85.36,85.36 0 0 0 0.52,10 c 0.26,2.58 0.55,5.5 0.75,10.89 0.29,7.86 1.78,23 2.64,31.27 a 0.52,0.52 0 0 1 -0.42,0.55 58.4,58.4 0 0 1 -9.97,0.8 z m -2,-1 a 57.29,57.29 0 0 0 11.29,-0.73 c -0.86,-8.41 -2.3,-23.13 -2.59,-30.88 v 0 c -0.2,-5.35 -0.49,-8.26 -0.74,-10.82 a 85,85 0 0 1 -0.53,-10.12 c 0,-9.3 -3,-27.8 -5.91,-40.48 -2.6,-11.53 -5.73,-17.69 -6.37,-18.88 L 128,309.48 c -0.83,1.52 -4.77,8.7 -8.49,16 -4.19,8.17 -8,14.35 -8.06,14.41 a 0.52,0.52 0 0 1 -0.43,0.23 0.46,0.46 0 0 1 -0.42,-0.25 c -0.07,-0.1 -6.37,-11 -10.11,-15.57 L 99.47,323 c -1.61,-2 -3.73,-4.55 -5.74,-7.05 a 18.47,18.47 0 0 0 -6.8,6 c 3.68,7 6.6,12.87 7.48,15 2.22,5.32 13.72,22.44 15.58,23.19 1.42,0.57 3.3,-0.49 4.55,-1.18 a 8.66,8.66 0 0 1 1,-0.51 c 1.08,-0.51 16.44,-13.56 21.63,-18.3 4.81,-4.39 7.59,-6.75 7.62,-6.78 a 0.51,0.51 0 0 1 0.45,-0.1 0.51,0.51 0 0 1 0.34,0.3 c 0.06,0.16 6,15.34 11.61,27 l 1.86,3.84 c 4.46,9.19 6.92,14.25 7.49,19.57 a 34.24,34.24 0 0 1 -0.58,8 c -0.73,5 -1.55,10.69 0.14,16.67 1.6,5.64 4,12.18 5.95,17.35 z"
       style="fill:#263238"
       id="path230" />
    <path
       d="m 195.09,464.65 c -3.19,0 -6.05,-1.47 -8.19,-2.56 -0.52,-0.27 -1,-0.51 -1.42,-0.7 a 33.23,33.23 0 0 1 -4.21,-2.73 c -1.48,-1.06 -3.5,-2.51 -4,-2.51 0,0 -5.39,0 -7.08,-2.28 a 2.56,2.56 0 0 1 -0.37,-2.38 c 0.76,-2.6 3,-5.59 4.26,-7.14 a 0.49,0.49 0 0 1 0.6,-0.14 c 4.55,2.14 6.94,2.81 7.53,2.82 0.85,-1.14 4.47,-2.9 5.21,-3.25 a 0.41,0.41 0 0 1 0.19,0 h 0.34 a 0.5,0.5 0 0 1 0.49,0.31 c 0.34,0.86 0.71,1.77 1.13,2.75 0.84,2 1.54,3.67 2.15,5.12 a 56.43,56.43 0 0 0 3.1,6.86 10.27,10.27 0 0 0 1.41,1.53 c 1.2,1.16 2.34,2.26 2,3.25 -0.27,0.79 -1.32,1 -2.08,1.06 v 0 c -0.39,-0.03 -0.73,-0.01 -1.06,-0.01 z m 0.91,-1 0.05,0.5 -0.05,-0.5 c 0.9,-0.09 1.21,-0.29 1.24,-0.39 0.13,-0.38 -1.09,-1.56 -1.74,-2.2 a 10.28,10.28 0 0 1 -1.57,-1.72 57.31,57.31 0 0 1 -3.18,-7 c -0.6,-1.44 -1.3,-3.13 -2.14,-5.11 q -0.54,-1.26 -1,-2.4 c -1.79,0.87 -4.3,2.27 -4.67,2.89 -0.22,0.36 -0.72,1.2 -8.38,-2.38 a 22.36,22.36 0 0 0 -3.83,6.49 1.57,1.57 0 0 0 0.22,1.5 c 1.14,1.53 5,1.88 6.27,1.88 0.82,0 2.29,1 4.63,2.69 a 30.94,30.94 0 0 0 4,2.64 c 0.43,0.19 0.92,0.44 1.46,0.72 2.3,1.09 5.39,2.66 8.69,2.34 z"
       style="fill:#263238"
       id="path232" />
    <path
       d="m 78.09,297.32 c 0,0 6.89,3.09 10.24,5 0.8,-2.49 1.94,-5.56 1.81,-6.72 -0.21,-1.91 -4.86,-4.87 -8.24,-6.35 -3.38,-1.48 -12.9,-6.1 -16.9,-7.36 -4,-1.26 -5.29,0.21 -4.44,1.48 0.85,1.27 9.83,12.32 13.74,17.42 z"
       style="fill:#ffffff"
       id="path234" />
    <path
       d="m 88.33,302.85 a 0.51,0.51 0 0 1 -0.25,-0.06 c -2.89,-1.68 -8.54,-4.27 -9.89,-4.88 l -3.56,3.25 a 0.57,0.57 0 0 1 -0.38,0.13 0.52,0.52 0 0 1 -0.35,-0.2 c -2,-2.55 -5.2,-6.61 -8.06,-10.19 -2.86,-3.58 -5.31,-6.67 -5.71,-7.26 a 1.61,1.61 0 0 1 0,-1.9 c 0.75,-1 2.58,-1.11 5,-0.33 2.92,0.92 8.7,3.61 12.92,5.57 1.66,0.77 3.09,1.43 4,1.85 3.16,1.38 8.28,4.44 8.54,6.74 0.12,1.06 -0.61,3.23 -1.37,5.52 l -0.47,1.42 a 0.47,0.47 0 0 1 -0.29,0.31 z m -10.24,-6 a 0.52,0.52 0 0 1 0.21,0 c 0.06,0 6.27,2.82 9.74,4.76 0.09,-0.28 0.19,-0.56 0.28,-0.84 0.66,-2 1.42,-4.26 1.32,-5.1 -0.16,-1.52 -4.32,-4.35 -7.94,-5.94 -1,-0.41 -2.39,-1.08 -4.06,-1.86 -4.2,-1.95 -10,-4.62 -12.8,-5.52 -2.53,-0.79 -3.67,-0.39 -4,0 a 0.67,0.67 0 0 0 0.07,0.75 c 0.37,0.55 2.94,3.78 5.66,7.19 2.72,3.41 5.75,7.21 7.74,9.77 l 3.4,-3.1 a 0.46,0.46 0 0 1 0.38,-0.14 z"
       style="fill:#263238"
       id="path236" />
    <path
       d="m 128.83,304.72 -2.54,6.13 c 0,0 10.78,6.76 23.25,8.87 12.47,2.11 21.35,1.27 21.56,0 0.21,-1.27 -0.21,-7.61 -0.21,-7.61 0,0 -4,1.91 -21.56,-2.74 -17.56,-4.65 -20.5,-4.65 -20.5,-4.65 z"
       style="fill:#92e3a9"
       id="path238" />
    <path
       d="m 163.42,321.51 a 85.43,85.43 0 0 1 -14,-1.29 c -12.43,-2.11 -23.33,-8.88 -23.44,-9 a 0.5,0.5 0 0 1 -0.19,-0.62 l 2.53,-6.13 a 0.51,0.51 0 0 1 0.47,-0.3 c 0.12,0 3.22,0 20.63,4.66 17.17,4.56 21.18,2.8 21.22,2.78 a 0.5,0.5 0 0 1 0.46,0 0.5,0.5 0 0 1 0.25,0.4 74.43,74.43 0 0 1 0.21,7.73 1,1 0 0 1 -0.45,0.64 c -0.82,0.68 -3.58,1.13 -7.69,1.13 z m -36.51,-10.87 c 2,1.17 11.75,6.73 22.71,8.59 12.26,2.08 20.39,1.18 21,0.35 a 68,68 0 0 0 -0.2,-6.82 c -1.74,0.37 -7.24,0.8 -21.23,-2.91 -14.41,-3.82 -18.91,-4.49 -20,-4.61 z"
       style="fill:#263238"
       id="path240" />
    <path
       d="m 131,312.78 h -0.13 a 0.5,0.5 0 0 1 -0.35,-0.62 l 1,-3.86 a 0.51662365,0.51662365 0 1 1 1,0.26 l -1,3.86 a 0.49,0.49 0 0 1 -0.52,0.36 z"
       style="fill:#263238"
       id="path242" />
    <path
       d="m 139.8,315 a 0.39,0.39 0 0 1 -0.15,0 0.5,0.5 0 0 1 -0.33,-0.62 l 1,-3.2 a 0.52201533,0.52201533 0 1 1 1,0.3 l -1,3.19 A 0.5,0.5 0 0 1 139.8,315 Z"
       style="fill:#263238"
       id="path244" />
    <path
       d="m 153.3,318.92 a 0.44,0.44 0 0 1 -0.22,-0.05 0.5,0.5 0 0 1 -0.23,-0.67 l 1.23,-2.46 a 0.50311529,0.50311529 0 0 1 0.9,0.45 l -1.23,2.46 a 0.51,0.51 0 0 1 -0.45,0.27 z"
       style="fill:#263238"
       id="path246" />
    <path
       d="m 174.55,244 c 0,0 -7.82,-5.17 -15.37,-4.24 -7.55,0.93 -10.08,1.45 -12.6,7.55 -2.52,6.1 -1.72,25.72 -2.65,29 -0.93,3.28 -14.18,20.15 -15.77,24.52 -1.59,4.37 -2,5.7 3.84,7.56 5.84,1.86 23.33,7.82 30.89,8.48 7.56,0.66 9.14,-1.85 9.41,-4.11 0.27,-2.26 -1.86,-2.91 0.13,-9.54 1.99,-6.63 6.76,-23.33 8.35,-28 1.59,-4.67 3.32,-9 3.05,-13.12 -0.27,-4.12 -4.37,-10.74 -5.7,-12.73 -1.33,-1.99 -3.58,-5.37 -3.58,-5.37 z"
       style="fill:#92e3a9"
       id="path248" />
    <path
       d="m 165.21,317.51 c -0.73,0 -1.52,0 -2.37,-0.11 -6.61,-0.58 -20.6,-5.13 -28.11,-7.57 l -2.88,-0.93 c -3,-0.95 -4.36,-1.77 -4.93,-2.92 -0.66,-1.35 -0.06,-3 0.77,-5.29 0.83,-2.29 4.65,-7.73 8.35,-13 3.43,-4.89 7,-9.94 7.41,-11.49 a 62.54,62.54 0 0 0 0.56,-8.86 c 0.22,-7.27 0.5,-16.32 2.11,-20.23 2.6,-6.3 5.19,-6.9 13,-7.86 7.81,-0.96 15.39,4.1 15.72,4.32 a 0.93,0.93 0 0 1 0.14,0.14 c 0,0 2.25,3.45 3.58,5.43 0.56,0.85 5.48,8.35 5.78,13 0.24,3.78 -1.12,7.7 -2.57,11.85 l -0.5,1.47 c -1.08,3.15 -3.69,12.08 -5.79,19.26 -1,3.44 -1.93,6.58 -2.56,8.69 -1.29,4.32 -0.8,6 -0.41,7.3 a 5.18,5.18 0 0 1 0.3,2.16 c -0.38,3.13 -2.87,4.64 -7.6,4.64 z M 161,240.14 a 15.22,15.22 0 0 0 -1.79,0.11 c -7.52,0.92 -9.8,1.45 -12.19,7.25 -1.55,3.74 -1.83,13.07 -2,19.88 -0.13,4.36 -0.23,7.8 -0.6,9.1 -0.48,1.71 -3.91,6.61 -7.55,11.79 -3.64,5.18 -7.45,10.61 -8.23,12.76 -0.78,2.15 -1.26,3.58 -0.81,4.51 0.45,0.93 1.72,1.57 4.33,2.4 l 2.89,0.94 c 7.47,2.43 21.39,6.95 27.89,7.52 8.36,0.74 8.74,-2.58 8.87,-3.66 a 4,4 0 0 0 -0.26,-1.77 c -0.41,-1.38 -1,-3.26 0.41,-7.86 0.64,-2.12 1.55,-5.25 2.56,-8.69 2.21,-7.56 4.71,-16.13 5.8,-19.3 l 0.51,-1.48 c 1.41,-4.05 2.74,-7.88 2.51,-11.45 -0.28,-4.36 -5.07,-11.66 -5.61,-12.48 -1.2,-1.8 -3.17,-4.8 -3.53,-5.35 -0.79,-0.5 -6.89,-4.22 -13.2,-4.22 z"
       style="fill:#263238"
       id="path250" />
    <path
       d="m 231.68,222.26 c 0,0 2,-5.17 2.92,-6.1 a 16.9,16.9 0 0 0 3.71,-5.57 c 0.66,-2.12 0.93,-3.58 1.46,-2.25 0.53,1.33 1.33,2.52 0.53,5.17 l -0.79,2.65 c 0,0 9.14,-3.84 11,-4.9 1.86,-1.06 3.05,-1.46 3.18,-0.53 0.13,0.93 -0.4,1.59 -2.12,2.78 -1.72,1.19 -6,3.45 -6.37,4.37 -0.37,0.92 2,1.33 2.79,0.93 0.79,-0.4 5.83,-2.65 6.63,-2.91 0.8,-0.26 2.38,-0.27 1.72,0.92 -0.66,1.19 -3.18,3.18 -5.44,4.11 a 21.36,21.36 0 0 0 -3.44,1.73 25.86,25.86 0 0 0 5.17,0.13 c 2.12,-0.27 4.11,-1.06 4,-0.4 -0.11,0.66 -1.45,1.86 -4.1,2.78 a 26.1,26.1 0 0 1 -4.78,1.2 c 0,0 4.51,1.59 5.84,1.59 1.33,0 1.32,0.93 -1.06,1.19 a 44.39,44.39 0 0 1 -8.36,-0.13 c -2.65,-0.27 -6.36,1.72 -6.36,1.72 z"
       style="fill:#ffffff"
       id="path252" />
    <path
       d="m 237.78,231.24 a 0.48,0.48 0 0 1 -0.4,-0.21 l -6.1,-8.48 a 0.49,0.49 0 0 1 -0.06,-0.47 c 0.2,-0.54 2.05,-5.3 3,-6.27 a 16.5,16.5 0 0 0 3.59,-5.37 c 0.1,-0.32 0.19,-0.63 0.27,-0.92 0.45,-1.48 0.65,-2.16 1.25,-2.19 0.6,-0.03 0.77,0.57 0.87,0.82 l 0.21,0.49 a 6.31,6.31 0 0 1 0.34,5 l -0.49,1.64 c 2.41,-1 8.52,-3.64 10,-4.47 1.79,-1 2.74,-1.3 3.36,-1 a 1,1 0 0 1 0.56,0.83 c 0.18,1.28 -0.64,2.1 -2.33,3.27 -0.56,0.39 -1.37,0.88 -2.22,1.4 -1.41,0.85 -3.76,2.27 -4,2.76 a 1.71,1.71 0 0 0 0.89,0.34 2.33,2.33 0 0 0 1.22,-0.06 c 0.8,-0.4 5.86,-2.66 6.69,-2.94 0.45,-0.15 1.75,-0.39 2.32,0.29 a 1.14,1.14 0 0 1 0,1.36 c -0.77,1.37 -3.42,3.39 -5.68,4.32 -0.81,0.34 -1.48,0.65 -2,0.92 a 19.29,19.29 0 0 0 3.48,0 c 0.74,-0.09 1.46,-0.25 2.1,-0.39 1.24,-0.27 1.87,-0.41 2.24,-0.05 a 0.67,0.67 0 0 1 0.18,0.64 c -0.2,1 -2,2.3 -4.43,3.16 a 28.71,28.71 0 0 1 -3,0.85 19.76,19.76 0 0 0 3.86,1 c 1,0 1.36,0.43 1.39,0.84 0.03,0.41 -0.26,1.11 -2.4,1.35 a 45.26,45.26 0 0 1 -8.46,-0.13 c -2.47,-0.26 -6,1.64 -6.07,1.66 a 0.53,0.53 0 0 1 -0.18,0.01 z m -5.53,-9.05 5.69,7.91 c 1.05,-0.51 4,-1.81 6.25,-1.58 a 43.07,43.07 0 0 0 8.25,0.13 5.64,5.64 0 0 0 1,-0.19 34.83,34.83 0 0 1 -5.91,-1.62 0.5,0.5 0 0 1 -0.33,-0.53 0.49,0.49 0 0 1 0.43,-0.44 25,25 0 0 0 4.67,-1.17 8.48,8.48 0 0 0 3.55,-2 c -0.29,0.05 -0.66,0.13 -1,0.21 -0.66,0.14 -1.41,0.31 -2.2,0.4 a 25.4,25.4 0 0 1 -5.3,-0.13 0.51,0.51 0 0 1 -0.42,-0.38 0.5,0.5 0 0 1 0.21,-0.53 22.77,22.77 0 0 1 3.53,-1.77 12.75,12.75 0 0 0 5.19,-3.89 0.58,0.58 0 0 0 0.1,-0.26 2,2 0 0 0 -1.23,0.05 c -0.77,0.26 -5.79,2.5 -6.56,2.89 a 3.57,3.57 0 0 1 -3.21,-0.44 1,1 0 0 1 -0.25,-1.13 c 0.31,-0.73 1.85,-1.71 4.36,-3.23 0.84,-0.51 1.64,-1 2.17,-1.36 1.74,-1.2 2,-1.7 1.91,-2.3 -0.07,-0.11 -0.49,-0.22 -2.43,0.89 -1.94,1.11 -10.69,4.77 -11.06,4.93 a 0.5,0.5 0 0 1 -0.67,-0.6 l 0.79,-2.65 a 5.34,5.34 0 0 0 -0.3,-4.33 l -0.12,-0.29 c -0.1,0.31 -0.22,0.69 -0.33,1.06 -0.11,0.37 -0.18,0.6 -0.28,0.93 a 17.35,17.35 0 0 1 -3.84,5.77 c -0.55,0.57 -1.91,3.66 -2.66,5.65 z"
       style="fill:#263238"
       id="path254" />
    <path
       d="m 157.72,259.51 c 0,0 23.2,3.18 29.69,2.65 a 52,52 0 0 0 17.1,-4.91 c 2.92,-1.59 27.17,-21.34 28.5,-22.93 1.33,-1.59 6.36,-3.31 6.36,-3.31 0,0 -6.89,-7.69 -7.69,-8.75 l -0.79,-1.06 c 0,0 0.53,2 -9.41,9.28 -9.94,7.28 -17.23,12.06 -23.47,13 a 71.44,71.44 0 0 1 -20,-0.27 c -4.64,-0.93 -16.57,-5.3 -22.54,-1.59 C 149.5,245.33 151,251 151,251"
       style="fill:#92e3a9"
       id="path256" />
    <path
       d="m 185.62,262.72 c -8.07,0 -27.1,-2.6 -28,-2.72 a 0.50487622,0.50487622 0 1 1 0.14,-1 c 0.23,0 23.22,3.16 29.58,2.65 a 51.36,51.36 0 0 0 16.9,-4.85 c 2.9,-1.58 27.15,-21.36 28.36,-22.81 1.21,-1.45 4.41,-2.66 5.88,-3.21 -1.61,-1.8 -6.54,-7.32 -7.23,-8.23 l -0.21,-0.28 c -0.72,1.35 -2.92,3.93 -9.3,8.6 -10.6,7.77 -17.51,12.16 -23.68,13.08 a 71.7,71.7 0 0 1 -20.19,-0.27 c -0.9,-0.18 -2.05,-0.48 -3.38,-0.83 -5.63,-1.48 -14.14,-3.72 -18.79,-0.82 -5.59,3.47 -4.3,8.81 -4.29,8.86 a 0.5,0.5 0 0 1 -0.36,0.61 0.51,0.51 0 0 1 -0.61,-0.36 c 0,-0.06 -1.47,-6.1 4.73,-10 5,-3.12 13.78,-0.82 19.58,0.7 1.31,0.35 2.45,0.65 3.32,0.82 a 70.37,70.37 0 0 0 19.84,0.26 c 5.93,-0.88 13,-5.4 23.24,-12.9 9.1,-6.67 9.21,-8.73 9.21,-8.81 a 0.47,0.47 0 0 1 0.27,-0.55 0.54,0.54 0 0 1 0.63,0.19 l 0.79,1.06 c 0.78,1 7.6,8.64 7.66,8.71 a 0.49,0.49 0 0 1 0.12,0.46 0.53,0.53 0 0 1 -0.33,0.35 c -1.36,0.47 -5.12,1.94 -6.14,3.16 -1.3,1.56 -25.51,21.35 -28.64,23.05 a 52.89,52.89 0 0 1 -17.3,5 c -0.48,0.06 -1.1,0.08 -1.8,0.08 z"
       style="fill:#263238"
       id="path258" />
    <path
       d="m 231.55,233.89 a 0.51,0.51 0 0 1 -0.39,-0.18 l -4.77,-6 a 0.50132325,0.50132325 0 0 1 0.78,-0.63 l 4.77,6 a 0.49,0.49 0 0 1 -0.08,0.7 0.45,0.45 0 0 1 -0.31,0.11 z"
       style="fill:#263238"
       id="path260" />
    <path
       d="m 229,230.71 a 0.5,0.5 0 0 1 -0.33,-0.87 l 4.11,-3.71 a 0.49,0.49 0 0 1 0.7,0 0.5,0.5 0 0 1 0,0.71 l -4.11,3.71 a 0.5,0.5 0 0 1 -0.37,0.16 z"
       style="fill:#263238"
       id="path262" />
    <path
       d="m 233.54,229.78 a 0.49,0.49 0 0 1 -0.41,-0.21 0.5,0.5 0 0 1 0.13,-0.7 l 2.12,-1.46 a 0.50062461,0.50062461 0 0 1 0.56,0.83 l -2.12,1.46 a 0.54,0.54 0 0 1 -0.28,0.08 z"
       style="fill:#263238"
       id="path264" />
    <path
       d="m 151.09,268.75 a 0.5,0.5 0 0 1 -0.49,-0.39 0.49,0.49 0 0 1 0.38,-0.59 28.59,28.59 0 0 0 3,-0.86 0.5,0.5 0 1 1 0.33,0.94 27.38,27.38 0 0 1 -3.12,0.89 z"
       style="fill:#263238"
       id="path266" />
    <path
       d="m 156.69,266.92 a 0.49,0.49 0 0 1 -0.46,-0.31 0.5,0.5 0 0 1 0.27,-0.66 90.65,90.65 0 0 0 10.9,-5.55 0.50249378,0.50249378 0 1 1 0.52,0.86 92.9,92.9 0 0 1 -11,5.62 0.65,0.65 0 0 1 -0.23,0.04 z"
       style="fill:#263238"
       id="path268" />
    <path
       d="m 154.54,275.91 a 0.49,0.49 0 0 1 -0.41,-0.21 0.5,0.5 0 0 1 0.12,-0.7 c 5.33,-3.77 14.67,-13.75 14.77,-13.85 a 0.50224496,0.50224496 0 0 1 0.73,0.69 c -0.39,0.41 -9.51,10.15 -14.92,14 a 0.52,0.52 0 0 1 -0.29,0.07 z"
       style="fill:#263238"
       id="path270" />
    <path
       d="m 146.58,281 a 0.5,0.5 0 0 1 -0.23,-0.94 c 1.67,-0.9 5.86,-3.91 5.91,-3.94 a 0.5,0.5 0 0 1 0.58,0.81 c -0.17,0.12 -4.29,3.08 -6,4 a 0.53,0.53 0 0 1 -0.26,0.07 z"
       style="fill:#263238"
       id="path272" />
  </g>
</svg>
